<svg width="20" height="20" viewBox="0 0 20 20" fill="none" xmlns="http://www.w3.org/2000/svg">
<path fill-rule="evenodd" clip-rule="evenodd" d="M10 19.5C4.76167 19.5 0.5 15.2383 0.5 10C0.5 4.76167 4.76167 0.5 10 0.5C15.2383 0.5 19.5 4.76167 19.5 10C19.5 15.2383 15.2383 19.5 10 19.5ZM18.0118 11.3004C17.7342 11.2128 15.5002 10.5465 12.9573 10.9535C14.0187 13.87 14.4505 16.2456 14.5337 16.7391C16.3542 15.5081 17.6502 13.5582 18.0118 11.3004ZM13.1697 17.4819C13.049 16.77 12.5778 14.2889 11.4386 11.3285C11.4208 11.3345 11.4029 11.3403 11.3851 11.3465C6.80825 12.9414 5.16526 16.1154 5.01929 16.4139C6.1591 17.3026 7.51589 17.8703 8.94899 18.0581C10.3821 18.2459 11.8393 18.047 13.1697 17.4819ZM3.97157 15.438C4.15537 15.1233 6.38236 11.436 10.5673 10.0833C10.6731 10.0491 10.7796 10.0169 10.8871 9.98676C10.6834 9.52582 10.4615 9.06433 10.2292 8.60972C6.17691 9.82246 2.24469 9.77179 1.88966 9.76449C1.88719 9.84688 1.88553 9.92946 1.88553 10.0124C1.88397 12.0171 2.62744 13.9507 3.97157 15.438ZM2.05694 8.35044C2.41986 8.35521 5.7631 8.36973 9.55865 7.36177C8.21414 4.97181 6.76408 2.96227 6.55018 2.6689C4.28009 3.73968 2.5831 5.83242 2.05694 8.35044ZM8.09845 2.12349C8.32275 2.42379 9.79651 4.43076 11.1262 6.87371C14.0116 5.79222 15.2332 4.15042 15.3791 3.94255C14.4021 3.07488 13.2297 2.45631 11.962 2.13957C10.6943 1.82283 9.36877 1.81731 8.09845 2.12349ZM16.2811 4.88097C16.11 5.11247 14.7504 6.8555 11.7501 8.08041C11.9389 8.46694 12.1199 8.86005 12.2884 9.25575C12.3481 9.39595 12.4064 9.53553 12.4632 9.67451C15.1632 9.33502 17.846 9.87912 18.1135 9.9357C18.0979 8.09096 17.4513 6.30713 16.2811 4.88097Z" fill="#E94B88"/>
</svg>
