<svg width="100" height="50" viewBox="0 0 100 50" fill="none" xmlns="http://www.w3.org/2000/svg">
<path d="M14.1186 49.708V41.129H2.80639V49.708H0V30.3318H2.80639V38.6487H14.1192V30.3318H16.9256V49.708H14.1186Z" fill="#5D5FEF"/>
<path d="M29.0853 49.708L29.0267 47.5483H28.9681C28.0326 49.0947 26.3662 49.9993 24.0569 49.9993C20.5782 49.9993 18.4448 47.7525 18.4448 43.9878V36.0507H20.9293V43.7251C20.9293 46.2932 22.3325 47.7811 24.6419 47.7811C27.1851 47.7811 28.7049 46.0304 28.7049 43.1411V36.05H31.1895V49.7067H29.0847L29.0853 49.708Z" fill="#5D5FEF"/>
<path d="M44.1101 49.708L44.0221 47.5483H43.9635C42.94 49.0655 41.0698 49.9993 38.6725 49.9993C34.6968 49.9993 31.8324 47.0228 31.8324 42.879C31.8324 38.7352 34.6968 35.7587 38.6725 35.7587C40.8939 35.7587 42.5896 36.5176 43.671 37.8306H43.7296V29.2809H46.2142V49.7073L44.1101 49.708ZM43.8176 42.8797C43.8176 39.991 41.8593 37.9769 39.0823 37.9769C36.3052 37.9769 34.347 39.9903 34.347 42.8797C34.347 45.769 36.2765 47.7824 39.0823 47.7824C41.888 47.7824 43.8176 45.769 43.8176 42.8797Z" fill="#5D5FEF"/>
<path d="M59.1348 49.708L59.0468 47.5483H58.9882C57.9648 49.0655 56.0945 49.9993 53.6972 49.9993C49.7215 49.9993 46.8571 47.0228 46.8571 42.879C46.8571 38.7352 49.7222 35.7587 53.6972 35.7587C55.9186 35.7587 57.6143 36.5176 58.6957 37.8306H58.7543V29.2809H61.2389V49.7073L59.1348 49.708ZM58.8429 42.8797C58.8429 39.991 56.8847 37.9769 54.1076 37.9769C51.3306 37.9769 49.3724 39.9903 49.3724 42.8797C49.3724 45.769 51.3019 47.7824 54.1076 47.7824C56.9134 47.7824 58.8429 45.769 58.8429 42.8797Z" fill="#5D5FEF"/>
<path d="M74.1602 49.708L74.0722 47.5483H74.0136C72.9902 49.0655 71.1199 49.9993 68.7226 49.9993C64.7469 49.9993 61.8825 47.0228 61.8825 42.879C61.8825 38.7352 64.7469 35.7587 68.7226 35.7587C70.944 35.7587 72.6397 36.5176 73.7211 37.8306H73.7797V29.2809H76.2643V49.7073L74.1602 49.708ZM73.8677 42.8797C73.8677 39.991 71.9094 37.9769 69.1324 37.9769C66.3553 37.9769 64.3971 39.9903 64.3971 42.8797C64.3971 45.769 66.3266 47.7824 69.1324 47.7824C71.9381 47.7824 73.8677 45.769 73.8677 42.8797Z" fill="#5D5FEF"/>
<path d="M78.3691 29.2809H80.8537V49.7073H78.3691V29.2809Z" fill="#5D5FEF"/>
<path d="M84.5955 43.6965C84.9466 46.2353 86.9928 47.7818 90.091 47.7818C92.1079 47.7818 93.8615 47.1399 95.1481 45.914H95.2647V48.4236C94.0368 49.416 92.1665 49.9993 90.0324 49.9993C85.2092 49.9993 82.0816 47.1685 82.0816 42.879C82.0816 38.5895 85.0339 35.7587 89.2142 35.7587C93.3944 35.7587 96.1422 38.3561 96.1422 42.3243V43.6958L84.5955 43.6965ZM84.5955 41.6246H93.8329C93.4817 39.407 91.7281 37.9769 89.2435 37.9769C86.9048 37.9769 85.0632 39.4362 84.5955 41.6246Z" fill="#5D5FEF"/>
<path d="M100 48.3072C100 49.2703 99.2984 50 98.3336 50C97.3688 50 96.6379 49.2703 96.6379 48.3072C96.6379 47.3441 97.3688 46.6144 98.3336 46.6144C99.2984 46.6144 100 47.3441 100 48.3072Z" fill="#5D5FEF"/>
<path d="M45.8131 10.6869C45.4686 11.1991 45.2187 11.7811 45.0948 12.4076C46.0076 13.3601 46.57 14.6485 46.57 16.0672C46.57 16.3359 46.5493 16.6 46.5113 16.8594C46.9637 17.2871 47.4994 17.629 48.0918 17.8564C48.243 17.2838 48.323 16.6858 48.323 16.0672C48.323 13.9102 47.3475 11.9786 45.8131 10.6869ZM45.366 19.4215C44.3925 20.6035 42.9187 21.3571 41.273 21.3571C38.3507 21.3571 35.974 18.9839 35.974 16.0672C35.974 13.1506 38.3513 10.7774 41.273 10.7774C41.7621 10.7774 42.2338 10.8439 42.6829 10.9669C42.8728 10.4009 43.1306 9.86611 43.4444 9.36992C42.7608 9.1471 42.0299 9.02804 41.273 9.02804C37.3839 9.02804 34.221 12.1855 34.221 16.0679C34.221 19.9503 37.3839 23.1077 41.273 23.1077C43.5724 23.1077 45.6192 22.0023 46.9064 20.2955C46.3568 20.0647 45.8404 19.77 45.366 19.4215Z" fill="#5D5FEF"/>
<path d="M45.8131 10.6869C45.4686 11.1991 45.2187 11.7811 45.0948 12.4076C46.0076 13.3601 46.57 14.6485 46.57 16.0672C46.57 16.3359 46.5493 16.6 46.5113 16.8594C46.9637 17.2871 47.4994 17.629 48.0918 17.8564C48.243 17.2838 48.323 16.6858 48.323 16.0672C48.323 13.9102 47.3475 11.9786 45.8131 10.6869ZM45.366 19.4215C44.3925 20.6035 42.9187 21.3571 41.273 21.3571C38.3507 21.3571 35.974 18.9839 35.974 16.0672C35.974 13.1506 38.3513 10.7774 41.273 10.7774C41.7621 10.7774 42.2338 10.8439 42.6829 10.9669C42.8728 10.4009 43.1306 9.86611 43.4444 9.36992C42.7608 9.1471 42.0299 9.02804 41.273 9.02804C37.3839 9.02804 34.221 12.1855 34.221 16.0679C34.221 19.9503 37.3839 23.1077 41.273 23.1077C43.5724 23.1077 45.6192 22.0023 46.9064 20.2955C46.3568 20.0647 45.8404 19.77 45.366 19.4215Z" fill="#5D5FEF"/>
<path d="M56.6462 11.5995C56.0519 11.8349 55.5168 12.1881 55.0671 12.6271C55.1004 12.8672 55.1184 13.114 55.1184 13.3634C55.1184 14.7522 54.58 16.018 53.7005 16.9625C53.8185 17.597 54.0623 18.1857 54.4061 18.7058C55.9133 17.4128 56.8707 15.4979 56.8707 13.3634C56.8707 12.7542 56.7928 12.1642 56.6462 11.5995Z" fill="#5D5FEF"/>
<path d="M56.6462 11.5995C56.0519 11.8349 55.5168 12.1881 55.0671 12.6271C55.1004 12.8672 55.1184 13.114 55.1184 13.3634C55.1184 14.7522 54.58 16.018 53.7005 16.9625C53.8185 17.597 54.0623 18.1857 54.4061 18.7058C55.9133 17.4128 56.8707 15.4979 56.8707 13.3634C56.8707 12.7542 56.7928 12.1642 56.6462 11.5995Z" fill="#5D5FEF"/>
<path d="M65.4871 16.0672C65.4871 19.9483 62.3229 23.1071 58.4352 23.1071C56.1252 23.1071 54.0697 21.9923 52.7837 20.2729C52.6865 20.1425 52.5925 20.0088 52.5052 19.8718C52.1901 19.3836 51.9316 18.8542 51.745 18.2921C51.6937 18.1411 51.6477 17.9868 51.6077 17.8312C51.4612 17.2665 51.3832 16.6765 51.3832 16.0672C51.3832 13.9314 52.3407 12.0145 53.8498 10.7248C54.1923 11.245 54.4361 11.8349 54.5541 12.4681C53.6746 13.4126 53.1362 14.6791 53.1362 16.0672C53.1362 16.3166 53.1535 16.5621 53.1875 16.8022C53.2128 16.9898 53.2495 17.1747 53.2961 17.3543C53.446 17.9509 53.6979 18.5076 54.0324 19.0051C54.1203 19.1388 54.2156 19.2679 54.3162 19.3903C55.2883 20.5895 56.7748 21.3577 58.4365 21.3577C61.3588 21.3577 63.7355 18.9845 63.7355 16.0679C63.7355 13.1512 61.3582 10.778 58.4365 10.778C57.9248 10.778 57.4311 10.8512 56.9627 10.9862C56.8094 11.0308 56.6582 11.0813 56.5103 11.1392C55.9399 11.362 55.4156 11.6813 54.9598 12.0777C54.8099 11.4797 54.5581 10.923 54.2236 10.4248C54.1343 10.2931 54.0404 10.1641 53.9397 10.0417C52.9676 8.84246 51.4811 8.07423 49.8194 8.07423C48.1577 8.07423 46.6986 8.82783 45.7245 10.0098C45.6238 10.1322 45.5286 10.2592 45.438 10.3916C45.1015 10.8844 44.845 11.4365 44.6904 12.0298C44.6444 12.2061 44.6078 12.3877 44.5791 12.5706C44.5411 12.83 44.5205 13.094 44.5205 13.3641C44.5205 14.7828 45.0828 16.0712 45.9956 17.0237C46.1249 17.1574 46.2601 17.2831 46.4001 17.4022C46.8591 17.7899 47.3828 18.1005 47.9532 18.3154C48.1011 18.3726 48.253 18.4218 48.4076 18.463C48.8567 18.5874 49.3304 18.6539 49.8194 18.6539C50.3085 18.6539 50.8249 18.5808 51.2933 18.4458C51.4812 19.0105 51.7363 19.5466 52.0482 20.0428C51.3472 20.2769 50.5983 20.4039 49.8194 20.4039C49.0406 20.4039 48.3296 20.2849 47.646 20.062C47.4901 20.0108 47.3369 19.957 47.187 19.8951C46.6386 19.6743 46.1229 19.3863 45.6525 19.0411C45.5232 18.9473 45.3993 18.8488 45.2767 18.7437C43.7423 17.452 42.7675 15.5198 42.7675 13.3647C42.7675 12.7462 42.8474 12.1462 42.9987 11.5755C43.0387 11.4199 43.0846 11.2669 43.1373 11.1159C43.3272 10.5545 43.585 10.0251 43.9035 9.53621C43.9928 9.39919 44.0867 9.26549 44.184 9.13712C45.4733 7.43037 47.5188 6.32491 49.8194 6.32491C52.1201 6.32491 54.1836 7.43968 55.4709 9.15907C55.5681 9.28944 55.6621 9.42313 55.7494 9.56015C55.8993 9.49829 56.0505 9.44109 56.2064 9.38987C56.906 9.15575 57.6563 9.0287 58.4352 9.0287C62.3229 9.0287 65.4871 12.1861 65.4871 16.0685V16.0672Z" fill="#5D5FEF"/>
<path d="M58.2026 4.50509L57.6829 6.94548C57.549 7.57338 56.9307 7.97446 56.3011 7.84076H56.2977C55.6688 7.7064 55.2676 7.08915 55.4016 6.46126L55.9219 4.02086C56.0559 3.39364 56.6728 2.99256 57.3018 3.12559H57.3051L57.3078 3.12691C57.9368 3.26061 58.3379 3.87786 58.204 4.50575L58.2026 4.50509Z" fill="#5D5FEF"/>
<path d="M44.2533 3.82132L44.5118 6.30096C44.5784 6.94016 44.1127 7.51218 43.4724 7.57737V7.57936H43.4671C42.8281 7.64521 42.2564 7.18161 42.1905 6.54307L41.9326 4.06144C41.8667 3.4229 42.3304 2.85221 42.97 2.78503H42.974C43.6137 2.71785 44.1867 3.18212 44.2533 3.82132Z" fill="#5D5FEF"/>
<path d="M51.7657 1.17672L51.7357 3.66767C51.7277 4.3102 51.2 4.82435 50.5564 4.81637V4.81837H50.5517C49.9087 4.80972 49.3944 4.28359 49.4023 3.64173L49.4323 1.14879C49.4403 0.506263 49.968 -0.00788999 50.6116 9.16863e-05H50.6137C51.2573 0.00740823 51.7737 0.534199 51.7657 1.17672Z" fill="#5D5FEF"/>
</svg>
