<svg width="20" height="20" viewBox="0 0 20 20" fill="none" xmlns="http://www.w3.org/2000/svg">
<path d="M9.90593 0.5C4.73267 0.5 0.499994 4.8401 0.499994 10.1447C0.499994 14.1954 2.94553 17.7639 6.51979 19.1142C6.42573 18.3426 6.33167 17.1853 6.51979 16.3173C6.70791 15.5457 7.64851 11.4949 7.64851 11.4949C7.64851 11.4949 7.36635 10.9163 7.36635 10.0482C7.36635 8.69799 8.11881 7.7335 9.05941 7.7335C9.90594 7.7335 10.2822 8.31221 10.2822 9.08378C10.2822 9.9518 9.81188 11.1091 9.5297 12.2665C9.34158 13.231 10 14.0025 10.9406 14.0025C12.6337 14.0025 13.8564 12.1701 13.8564 9.56601C13.8564 7.25129 12.2574 5.61166 9.90593 5.61166C7.27227 5.61166 5.67326 7.63703 5.67326 9.75886C5.67326 10.6269 5.95545 11.4949 6.33169 11.9772C6.42575 12.0736 6.42575 12.1701 6.42575 12.2665C6.33169 12.5558 6.23762 13.231 6.14356 13.3274C6.14356 13.5203 6.04951 13.5203 5.86139 13.4239C4.73268 12.8452 3.9802 11.1091 3.9802 9.66244C3.9802 6.57614 6.14358 3.77921 10.1881 3.77921C13.4802 3.77921 16.0198 6.19037 16.0198 9.37311C16.0198 12.6523 13.9505 15.3528 11.1287 15.3528C10.1881 15.3528 9.24752 14.8705 8.96534 14.2919C8.96534 14.2919 8.49504 16.1244 8.40098 16.6066C8.21286 17.4746 7.64852 18.5355 7.27228 19.1142C8.11882 19.4035 9.05941 19.5 10.0941 19.5C15.2673 19.5 19.5 15.1599 19.5 9.85534C19.3119 4.84011 15.0792 0.5 9.90593 0.5Z" fill="#C92228"/>
</svg>
