<svg width="25" height="38" viewBox="0 0 25 38" fill="none" xmlns="http://www.w3.org/2000/svg">
<g clip-path="url(#clip0_9818_1068)">
<path d="M25 34.4225C25 35.8948 19.4036 37.0882 12.4997 37.0882C5.59568 37.0882 0 35.8948 0 34.4225C0 33.9401 0.605252 33.4875 1.65778 33.0967C1.70658 32.6485 1.92025 32.2339 2.25791 31.9323C2.59557 31.6306 3.03349 31.463 3.4879 31.4616H5.74477C4.25865 31.4616 3.0543 31.2085 3.0543 29.7335V29.34H6.45603C7.0818 27.9518 7.52496 26.5637 7.91205 25.1762C8.30888 23.6954 8.62846 22.1953 8.86951 20.6819C9.1144 19.1941 9.2697 17.6932 9.33457 16.187C9.38586 14.788 9.37355 13.389 9.15675 11.9899H7.48256C7.33552 11.9898 7.19454 11.9317 7.09057 11.8286C6.98659 11.7254 6.9281 11.5856 6.92792 11.4397V11.3915C6.92792 11.2456 6.98635 11.1056 7.09037 11.0024C7.19438 10.8993 7.33546 10.8413 7.48256 10.8413H8.02968C7.91488 10.7642 7.82088 10.6604 7.7559 10.5389C7.69092 10.4174 7.65695 10.282 7.65696 10.1445V10.0712C7.65714 9.84784 7.74671 9.63367 7.90598 9.47579C8.06526 9.3179 8.2812 9.22922 8.50636 9.22922H10.8145C9.88514 8.84274 9.11928 8.14898 8.64706 7.2658C8.17484 6.38262 8.02537 5.36449 8.22405 4.38437C8.42274 3.40425 8.95732 2.5226 9.73698 1.88919C10.5166 1.25577 11.4933 0.909668 12.501 0.909668C13.5088 0.909668 14.4854 1.25577 15.2651 1.88919C16.0447 2.5226 16.5793 3.40425 16.778 4.38437C16.9767 5.36449 16.8272 6.38262 16.355 7.2658C15.8828 8.14898 15.1169 8.84274 14.1875 9.22922H16.4964C16.7212 9.22958 16.9368 9.31844 17.0956 9.47631C17.2545 9.63418 17.3437 9.84813 17.3437 10.0712V10.1445C17.3437 10.2819 17.3098 10.4173 17.2449 10.5387C17.1801 10.6602 17.0863 10.764 16.9717 10.8413H17.5188C17.666 10.8413 17.8071 10.8992 17.9112 11.0024C18.0154 11.1056 18.074 11.2455 18.0741 11.3915V11.4397C18.074 11.5857 18.0154 11.7257 17.9112 11.8288C17.8071 11.932 17.666 11.9899 17.5188 11.9899H15.8405C15.6237 13.389 15.6121 14.788 15.6634 16.187C15.7276 17.6932 15.8829 19.1942 16.1284 20.6819C16.3692 22.1954 16.6887 23.6955 17.0859 25.1762C17.473 26.5637 17.9155 27.9518 18.5419 29.34H21.9409V29.7315C21.9409 31.2065 20.7359 31.4596 19.2498 31.4596H21.5066C21.9612 31.4608 22.3993 31.6283 22.737 31.93C23.0749 32.2317 23.2886 32.6464 23.3374 33.0947C24.3947 33.4875 25 33.9401 25 34.4225Z" fill="#BDCEEB"/>
<path d="M23.3621 33.2983C23.3626 33.7464 23.1971 34.1791 22.897 34.5141H2.10642C1.80588 34.1794 1.64009 33.7465 1.64068 33.2983C1.64361 33.2301 1.65046 33.1621 1.6612 33.0947C0.605253 33.4876 0 33.9401 0 34.4225C0 35.8948 5.59636 37.0883 12.4997 37.0883C19.403 37.0883 25 35.8948 25 34.4225C25 33.9401 24.3947 33.4876 23.3415 33.0968C23.3522 33.1635 23.3591 33.2308 23.3621 33.2983Z" fill="#9DBDDF"/>
<path d="M16.8622 5.23913C16.8621 4.45617 16.6479 3.68792 16.2424 3.0162C15.8369 2.34448 15.2554 1.79446 14.5597 1.42472C13.8641 1.05499 13.0803 0.879395 12.292 0.916645C11.5037 0.953896 10.7403 1.2026 10.0832 1.63625C9.42614 2.06991 8.89993 2.67228 8.56065 3.37919C8.22138 4.0861 8.08176 4.87108 8.15665 5.65049C8.23155 6.42991 8.51817 7.17457 8.98596 7.80516C9.45376 8.43574 10.0852 8.92862 10.8131 9.23129H14.1861C14.9789 8.90139 15.6559 8.3465 16.132 7.63626C16.6081 6.92602 16.8621 6.09208 16.8622 5.23913ZM8.48781 4.91074C8.48781 4.19293 8.70237 3.49124 9.10437 2.89441C9.50637 2.29758 10.0777 1.83242 10.7462 1.55775C11.4147 1.28309 12.1503 1.21126 12.8599 1.35134C13.5696 1.49143 14.2214 1.83715 14.733 2.34476C15.2445 2.85238 15.5929 3.4991 15.734 4.20314C15.875 4.90718 15.8025 5.63691 15.5255 6.30004C15.2485 6.96317 14.7795 7.52993 14.1779 7.92863C13.5762 8.32732 12.8689 8.54006 12.1453 8.53992C11.6649 8.53992 11.1893 8.44605 10.7455 8.26366C10.3017 8.08126 9.89846 7.81393 9.55882 7.47692C9.21918 7.13991 8.94979 6.73983 8.76602 6.29952C8.58225 5.85921 8.48772 5.3873 8.48781 4.91074Z" fill="#2D2D7C"/>
<path d="M1.63716 33.2989C1.63657 33.7472 1.80236 34.18 2.1029 34.5147H22.8969C23.197 34.1797 23.3625 33.747 23.362 33.2989C23.359 33.2307 23.3522 33.1627 23.3414 33.0953C23.2926 32.647 23.0789 32.2323 22.7411 31.9306C22.4033 31.6289 21.9652 31.4614 21.5106 31.4602H19.2538C20.7399 31.4602 21.9449 31.2071 21.9449 29.7321V29.34H18.5459C18.5801 29.4166 18.6102 29.4933 18.6458 29.57H20.1182C20.1182 30.3272 19.5205 30.9398 18.7846 30.9398H4.77148C4.0356 30.9398 3.43924 30.3292 3.43787 29.57H6.35539C6.39095 29.4933 6.42378 29.4166 6.45592 29.34H3.05694V29.7314C3.05694 31.2065 4.26129 31.4595 5.7474 31.4595H3.48779C3.03327 31.4608 2.59518 31.6283 2.25738 31.93C1.91958 32.2317 1.70581 32.6464 1.65699 33.0947C1.64625 33.1621 1.6394 33.23 1.63647 33.2982L1.63716 33.2989ZM3.01454 31.8503C3.16134 31.7873 3.31961 31.7547 3.47959 31.7547H18.0405C18.2915 31.7548 18.5377 31.8227 18.7527 31.951C18.9678 32.0794 19.1436 32.2633 19.2614 32.4832C19.3791 32.703 19.4344 32.9505 19.4213 33.1991C19.4081 33.4478 19.327 33.6882 19.1867 33.8946H2.36825C2.25212 33.724 2.17625 33.5296 2.14626 33.3259C2.11628 33.1222 2.13296 32.9144 2.19505 32.718C2.25715 32.5216 2.36308 32.3416 2.50495 32.1914C2.64682 32.0412 2.821 31.9246 3.01454 31.8503Z" fill="#2D2D7C"/>
<path d="M15.4036 10.9885C15.4657 11.0221 15.5185 11.0705 15.5572 11.1293C15.5958 11.1881 15.6192 11.2556 15.6252 11.3255C15.6311 11.3955 15.6195 11.4659 15.5913 11.5303C15.5632 11.5947 15.5193 11.6512 15.4637 11.6948H15.8871C15.8693 11.7938 15.8556 11.8929 15.8406 11.9919H17.5168C17.664 11.9919 17.8051 11.934 17.9093 11.8308C18.0134 11.7276 18.072 11.5877 18.0721 11.4417V11.3935C18.072 11.2475 18.0134 11.1076 17.9093 11.0044C17.8051 10.9012 17.664 10.8433 17.5168 10.8433H16.9697C16.8285 10.9384 16.6616 10.989 16.491 10.9885H15.4036Z" fill="#2D2D7C"/>
<path d="M7.56938 11.802C7.45148 11.802 7.33841 11.7556 7.25505 11.6729C7.17168 11.5902 7.12485 11.478 7.12485 11.361C7.12485 11.2441 7.17168 11.1319 7.25505 11.0492C7.33841 10.9665 7.45148 10.92 7.56938 10.92H8.17327C8.12247 10.8985 8.07391 10.8722 8.02828 10.8413H7.48116C7.33406 10.8413 7.19298 10.8993 7.08897 11.0025C6.98495 11.1057 6.92651 11.2456 6.92651 11.3916V11.4397C6.92669 11.5856 6.98519 11.7255 7.08917 11.8286C7.19314 11.9318 7.33411 11.9898 7.48116 11.99H9.1574C9.14782 11.9269 9.13893 11.8631 9.12799 11.8L7.56938 11.802Z" fill="#2D2D7C"/>
<path d="M11.5469 10.9221H15.1825C15.261 10.9243 15.3374 10.9478 15.4034 10.9899H16.4977C16.7228 10.9899 16.9386 10.9012 17.0978 10.7433C17.257 10.5854 17.3464 10.3712 17.3464 10.1479V10.0712C17.3464 9.84793 17.257 9.63377 17.0978 9.47586C16.9386 9.31796 16.7228 9.22925 16.4977 9.22925H8.50492C8.27976 9.22925 8.06382 9.31794 7.90454 9.47582C7.74527 9.63371 7.6557 9.84787 7.65552 10.0712V10.1445C7.65601 10.3098 7.70531 10.4714 7.79731 10.6092C7.88932 10.747 8.02001 10.8551 8.17323 10.92L11.5469 10.9221ZM8.02961 10.04C8.02997 9.84945 8.10635 9.66677 8.24205 9.53188C8.37776 9.397 8.56176 9.32088 8.75386 9.32016H13.5945C13.7873 9.32016 13.9722 9.39615 14.1086 9.53141C14.2449 9.66666 14.3215 9.85011 14.3215 10.0414V10.0509C14.3215 10.2422 14.2449 10.4256 14.1086 10.5609C13.9722 10.6961 13.7873 10.7721 13.5945 10.7721H8.75386C8.56105 10.7721 8.37614 10.6961 8.2398 10.5609C8.10347 10.4256 8.02688 10.2422 8.02688 10.0509L8.02961 10.04Z" fill="#2D2D7C"/>
<path d="M18.6438 29.5721C18.6082 29.4954 18.5754 29.4187 18.544 29.342C17.9175 27.9539 17.475 26.5657 17.0879 25.1782C16.6908 23.6976 16.3712 22.1975 16.1305 20.684C15.8849 19.1963 15.7296 17.6953 15.6654 16.1891C15.6141 14.79 15.6257 13.391 15.8425 11.992C15.8576 11.8929 15.8713 11.7939 15.889 11.6948H15.4657C15.3878 11.7626 15.2882 11.8006 15.1846 11.802H9.12937C9.14031 11.8651 9.1492 11.9289 9.15878 11.992C9.37558 13.391 9.38789 14.79 9.33659 16.1891C9.27173 17.6952 9.11643 19.1962 8.87154 20.684C8.63048 22.1974 8.31091 23.6975 7.91408 25.1782C7.52289 26.5657 7.08177 27.9539 6.456 29.34C6.42112 29.4167 6.38761 29.4933 6.35547 29.57L18.6438 29.5721ZM8.29091 24.9815C8.68767 23.5671 9.00728 22.1325 9.24837 20.684C9.49369 19.2623 9.64924 17.8268 9.71411 16.3858C9.76882 14.9536 9.75446 13.5206 9.48979 12.0883H14.1731V29.2789H6.6899C7.39979 27.8474 7.87305 26.4144 8.29091 24.9815Z" fill="#2D2D7C"/>
<path d="M14.1745 12.0884H12.7219V29.279H14.1745V12.0884Z" fill="#505CA6"/>
<path d="M12.7219 12.0884H11.9949V29.279H12.7219V12.0884Z" fill="#7582BF"/>
<path d="M7.41703 29.279C8.12691 27.8467 8.59949 26.4145 9.01804 24.9815C9.41479 23.5671 9.73441 22.1325 9.9755 20.684C10.2208 19.2623 10.3764 17.8268 10.4412 16.3859C10.4959 14.9536 10.4816 13.5206 10.2169 12.0884H9.4913C9.75597 13.5206 9.77033 14.9536 9.71562 16.3859C9.65075 17.8268 9.4952 19.2623 9.24988 20.684C9.00879 22.1325 8.68918 23.5671 8.29242 24.9815C7.87456 26.4145 7.40335 27.8467 6.69141 29.279H7.41839H7.41703Z" fill="#7582BF"/>
<path d="M10.4424 16.3859C10.3776 17.8268 10.222 19.2623 9.97669 20.684C9.7356 22.1325 9.41598 23.5671 9.01923 24.9815C8.60068 26.4145 8.13015 27.8467 7.41821 29.279H11.9962V12.0884H10.2181C10.4828 13.5206 10.4971 14.9563 10.4424 16.3859Z" fill="#9FAFDB"/>
<path d="M3.43799 29.572C3.43799 30.3292 4.03572 30.9419 4.77159 30.9419H18.7827C19.5186 30.9419 20.1149 30.3312 20.1163 29.572H3.43799Z" fill="#505CA6"/>
<path d="M15.6266 11.3603C15.6257 11.2842 15.6046 11.2096 15.5654 11.1441C15.5263 11.0786 15.4705 11.0245 15.4036 10.9872C15.3376 10.9451 15.2612 10.9216 15.1827 10.9193H13.6323C13.7254 10.9193 13.8147 10.956 13.8806 11.0212C13.9465 11.0865 13.9837 11.175 13.9838 11.2674V11.2748C13.9838 11.3673 13.9468 11.456 13.8809 11.5214C13.815 11.5868 13.7255 11.6236 13.6323 11.6236H7.67144C7.57833 11.6234 7.48909 11.5866 7.42331 11.5212C7.35754 11.4558 7.3206 11.3672 7.3206 11.2748V11.2674C7.3206 11.1751 7.35756 11.0865 7.42335 11.0213C7.48915 10.956 7.57839 10.9193 7.67144 10.9193H7.56954C7.45164 10.9193 7.33857 10.9658 7.2552 11.0485C7.17184 11.1312 7.125 11.2434 7.125 11.3603C7.125 11.4773 7.17184 11.5895 7.2552 11.6722C7.33857 11.7549 7.45164 11.8013 7.56954 11.8013H15.1827C15.2992 11.7976 15.41 11.75 15.4924 11.6682C15.5748 11.5864 15.6228 11.4766 15.6266 11.361V11.3603Z" fill="#505CA6"/>
<path d="M7.31763 11.2701V11.2775C7.31763 11.3699 7.35457 11.4585 7.42034 11.5239C7.48612 11.5893 7.57536 11.6261 7.66847 11.6263H13.6293C13.7226 11.6263 13.812 11.5895 13.8779 11.5241C13.9438 11.4587 13.9809 11.37 13.9809 11.2775V11.2701C13.9807 11.1777 13.9436 11.0892 13.8777 11.0239C13.8118 10.9587 13.7225 10.922 13.6293 10.922H11.5469C11.5787 10.9219 11.6103 10.9281 11.6397 10.9401C11.6692 10.9521 11.696 10.9698 11.7185 10.9921C11.7411 11.0144 11.759 11.0409 11.7712 11.0701C11.7834 11.0993 11.7897 11.1306 11.7897 11.1622V11.2178C11.7895 11.2816 11.7638 11.3427 11.7183 11.3877C11.6728 11.4327 11.6111 11.458 11.5469 11.458H7.86475C7.80048 11.458 7.73883 11.4327 7.69331 11.3877C7.6478 11.3427 7.62214 11.2816 7.62196 11.2178V11.1622C7.62196 11.1306 7.62825 11.0993 7.64046 11.0701C7.65267 11.0409 7.67056 11.0144 7.69311 10.9921C7.71567 10.9698 7.74244 10.9521 7.77189 10.9401C7.80134 10.9281 7.8329 10.9219 7.86475 10.922H7.6712C7.6249 10.9216 7.57898 10.9304 7.5361 10.9477C7.49322 10.9651 7.45422 10.9906 7.42135 11.023C7.38848 11.0553 7.36239 11.0938 7.34459 11.1362C7.32679 11.1786 7.31763 11.2241 7.31763 11.2701Z" fill="#7582BF"/>
<path d="M7.62207 11.1622V11.2178C7.62225 11.2816 7.64791 11.3427 7.69342 11.3877C7.73893 11.4327 7.80058 11.458 7.86486 11.458H11.547C11.6112 11.458 11.6729 11.4327 11.7184 11.3877C11.7639 11.3427 11.7896 11.2816 11.7898 11.2178V11.1622C11.7898 11.1306 11.7835 11.0993 11.7713 11.0701C11.7591 11.0409 11.7412 11.0144 11.7186 10.9921C11.6961 10.9698 11.6693 10.9521 11.6398 10.9401C11.6104 10.9281 11.5788 10.9219 11.547 10.922H7.86486C7.833 10.9219 7.80145 10.9281 7.772 10.9401C7.74255 10.9521 7.71578 10.9698 7.69322 10.9921C7.67067 11.0144 7.65277 11.0409 7.64056 11.0701C7.62836 11.0993 7.62207 11.1306 7.62207 11.1622Z" fill="#9FAFDB"/>
<path d="M8.75384 10.7721H13.5945C13.7873 10.7721 13.9722 10.6961 14.1086 10.5609C14.2449 10.4256 14.3215 10.2422 14.3215 10.0509V10.0414C14.3215 9.85013 14.2449 9.66669 14.1086 9.53143C13.9722 9.39618 13.7873 9.32019 13.5945 9.32019H12.1138C12.1836 9.3201 12.2527 9.33365 12.3172 9.36007C12.3816 9.38649 12.4402 9.42526 12.4896 9.47416C12.5389 9.52306 12.5781 9.58113 12.6048 9.64505C12.6315 9.70897 12.6452 9.77749 12.6452 9.84669V9.90843C12.6451 10.0481 12.589 10.182 12.4894 10.2808C12.3897 10.3795 12.2547 10.4349 12.1138 10.4349H8.80103C8.66022 10.4349 8.52516 10.3795 8.42552 10.2808C8.32589 10.182 8.26982 10.0481 8.26964 9.90843V9.84669C8.26964 9.77749 8.28339 9.70897 8.3101 9.64505C8.33682 9.58113 8.37597 9.52306 8.42532 9.47416C8.47468 9.42526 8.53326 9.38649 8.59773 9.36007C8.6622 9.33365 8.73128 9.3201 8.80103 9.32019H8.75384C8.65837 9.32019 8.56384 9.33885 8.47564 9.37509C8.38743 9.41134 8.30729 9.46446 8.23978 9.53143C8.17228 9.5984 8.11873 9.67791 8.08219 9.76541C8.04566 9.85292 8.02686 9.9467 8.02686 10.0414V10.0509C8.02686 10.2422 8.10345 10.4256 8.23978 10.5609C8.37612 10.6961 8.56103 10.7721 8.75384 10.7721Z" fill="#505CA6"/>
<path d="M8.26978 9.84669V9.90843C8.26996 10.0481 8.32602 10.182 8.42566 10.2808C8.52529 10.3795 8.66035 10.4349 8.80117 10.4349H12.114C12.2548 10.4349 12.3899 10.3795 12.4895 10.2808C12.5891 10.182 12.6452 10.0481 12.6454 9.90843V9.84669C12.6454 9.77749 12.6316 9.70897 12.6049 9.64505C12.5782 9.58113 12.539 9.52306 12.4897 9.47416C12.4403 9.42526 12.3818 9.38649 12.3173 9.36007C12.2528 9.33365 12.1837 9.3201 12.114 9.32019H11.2625C11.3727 9.32019 11.4783 9.36356 11.5563 9.44077C11.6343 9.51799 11.6782 9.62274 11.6783 9.73203V9.8433C11.6782 9.95259 11.6343 10.0573 11.5563 10.1346C11.4783 10.2118 11.3727 10.2551 11.2625 10.2551H8.90307C8.79297 10.2551 8.68738 10.2117 8.60953 10.1345C8.53168 10.0573 8.48794 9.95252 8.48794 9.8433V9.73203C8.48794 9.6228 8.53168 9.51805 8.60953 9.44082C8.68738 9.36358 8.79297 9.32019 8.90307 9.32019H8.80117C8.73142 9.3201 8.66233 9.33365 8.59786 9.36007C8.5334 9.38649 8.47481 9.42526 8.42546 9.47416C8.3761 9.52306 8.33695 9.58113 8.31024 9.64505C8.28353 9.70897 8.26978 9.77749 8.26978 9.84669Z" fill="#7582BF"/>
<path d="M8.90292 9.32019H11.2624C11.317 9.32019 11.3711 9.33086 11.4215 9.35159C11.472 9.37232 11.5178 9.40271 11.5564 9.44101C11.595 9.47932 11.6256 9.52479 11.6465 9.57484C11.6674 9.62489 11.6782 9.67853 11.6782 9.7327V9.84398C11.6782 9.9532 11.6345 10.058 11.5566 10.1352C11.4788 10.2124 11.3732 10.2558 11.2631 10.2558H8.9036C8.79332 10.2558 8.68756 10.2124 8.60958 10.135C8.5316 10.0576 8.48779 9.9527 8.48779 9.8433V9.73203C8.48779 9.6228 8.53153 9.51805 8.60938 9.44081C8.68723 9.36358 8.79282 9.32019 8.90292 9.32019Z" fill="#9FAFDB"/>
<path d="M15.8037 4.91068C15.8037 4.19289 15.5891 3.49123 15.1872 2.89441C14.7852 2.2976 14.2139 1.83243 13.5454 1.55775C12.877 1.28307 12.1414 1.2112 11.4318 1.35123C10.7222 1.49126 10.0704 1.83691 9.55876 2.34446C9.04716 2.85201 8.69875 3.49867 8.5576 4.20266C8.41645 4.90665 8.48889 5.63636 8.76577 6.2995C9.04265 6.96265 9.51153 7.52945 10.1131 7.92823C10.7147 8.32701 11.422 8.53986 12.1455 8.53986C12.6259 8.53995 13.1017 8.44614 13.5455 8.26379C13.9894 8.08143 14.3927 7.81411 14.7324 7.4771C15.0721 7.14008 15.3416 6.73996 15.5254 6.29961C15.7092 5.85926 15.8038 5.38729 15.8037 4.91068ZM8.76976 4.3204C8.76976 4.26137 8.77523 4.20302 8.77865 4.14468C8.77865 4.11482 8.76976 4.08633 8.76976 4.05647C8.77016 3.78352 8.82741 3.51359 8.93792 3.26362C9.04842 3.01365 9.20981 2.78903 9.41194 2.60385C9.81847 2.13455 10.3784 1.822 10.9937 1.7209C11.6091 1.61979 12.2407 1.73657 12.778 2.0508C13.3153 2.36503 13.7242 2.8567 13.933 3.43978C14.1418 4.02286 14.1373 4.66022 13.9203 5.24034C13.7033 5.82046 13.2875 6.3064 12.7458 6.61314C12.2041 6.91987 11.5709 7.02786 10.9571 6.91822C10.3432 6.80858 9.78773 6.48828 9.38787 6.01337C8.98801 5.53846 8.76921 4.93919 8.76976 4.3204Z" fill="#505CA6"/>
<path d="M14.0884 4.32042C14.089 3.78096 13.9229 3.25426 13.6125 2.81138C13.302 2.36849 12.8621 2.03072 12.352 1.84362C11.842 1.65653 11.2864 1.6291 10.7602 1.76504C10.2339 1.90098 9.7624 2.19375 9.40913 2.60387C9.74319 2.29362 10.1741 2.10596 10.6304 2.07201C11.0868 2.03807 11.5411 2.15988 11.918 2.41725C12.295 2.67462 12.5719 3.05208 12.703 3.48704C12.834 3.922 12.8113 4.38834 12.6385 4.80871C12.4657 5.22908 12.1533 5.57824 11.753 5.79828C11.3528 6.01832 10.8887 6.09603 10.4379 6.01853C9.98698 5.94102 9.57635 5.71294 9.27405 5.37213C8.97176 5.03131 8.79597 4.59823 8.77583 4.1447C8.77242 4.20305 8.76694 4.26139 8.76694 4.32042C8.76128 4.67062 8.82592 5.01844 8.9571 5.34361C9.08827 5.66879 9.28335 5.96481 9.53098 6.21445C9.77862 6.46409 10.0738 6.66235 10.3995 6.79768C10.7251 6.93301 11.0746 7.0027 11.4277 7.0027C11.7807 7.0027 12.1302 6.93301 12.4558 6.79768C12.7815 6.66235 13.0767 6.46409 13.3243 6.21445C13.572 5.96481 13.7671 5.66879 13.8982 5.34361C14.0294 5.01844 14.094 4.67062 14.0884 4.32042Z" fill="#7582BF"/>
<path d="M10.7777 6.04785C11.1731 6.04665 11.5593 5.92929 11.8876 5.71058C12.2158 5.49187 12.4715 5.18161 12.6222 4.81895C12.7729 4.45628 12.812 4.05745 12.7345 3.67278C12.657 3.2881 12.4664 2.93481 12.1868 2.65747C11.9071 2.38013 11.5509 2.19117 11.1632 2.11443C10.7754 2.03768 10.3734 2.07659 10.0079 2.22624C9.64236 2.3759 9.32971 2.6296 9.10937 2.95533C8.88903 3.28106 8.77086 3.66424 8.76978 4.05652C8.76978 4.08637 8.7773 4.11487 8.77867 4.14472C8.80069 4.6563 9.02083 5.13972 9.39323 5.49425C9.76564 5.84879 10.2616 6.0471 10.7777 6.04785Z" fill="#9FAFDB"/>
<path d="M16.971 32.9203C16.9711 33.1145 16.9221 33.3056 16.8286 33.4761C16.735 33.6467 16.5999 33.7913 16.4355 33.8966H19.1868C19.3271 33.6902 19.4082 33.4498 19.4213 33.2012C19.4345 32.9526 19.3792 32.7051 19.2615 32.4852C19.1437 32.2653 18.9679 32.0814 18.7528 31.9531C18.5378 31.8248 18.2916 31.7569 18.0406 31.7567H15.7981C16.1092 31.7567 16.4075 31.8793 16.6275 32.0975C16.8474 32.3157 16.971 32.6117 16.971 32.9203Z" fill="#505CA6"/>
<path d="M2.30688 32.9203C2.30696 33.1144 2.356 33.3055 2.44953 33.476C2.54306 33.6465 2.67811 33.7911 2.84238 33.8966H3.18843C3.04347 33.8337 2.92011 33.7302 2.83341 33.5989C2.7467 33.4676 2.70039 33.3141 2.70013 33.1571V32.923C2.70013 32.8169 2.7212 32.7119 2.76214 32.6139C2.80309 32.5159 2.86309 32.4269 2.93874 32.3519C3.01438 32.2769 3.10418 32.2174 3.203 32.1769C3.30182 32.1364 3.40772 32.1155 3.51465 32.1156H10.777C10.9928 32.1156 11.1998 32.2007 11.3525 32.3521C11.5051 32.5035 11.5908 32.7089 11.5908 32.923V33.1571C11.5907 33.3141 11.5444 33.4677 11.4577 33.599C11.371 33.7303 11.2475 33.8338 11.1025 33.8966H16.437C16.6493 33.7601 16.8114 33.559 16.8991 33.3235C16.9868 33.088 16.9954 32.8306 16.9235 32.5899C16.8516 32.3492 16.7032 32.138 16.5004 31.9878C16.2976 31.8376 16.0513 31.7566 15.7982 31.7567H3.47978C3.16876 31.7569 2.87054 31.8795 2.65062 32.0977C2.4307 32.3159 2.30707 32.6118 2.30688 32.9203Z" fill="#7582BF"/>
<path d="M11.5907 33.1571V32.923C11.5907 32.7089 11.5049 32.5035 11.3523 32.3521C11.1997 32.2007 10.9927 32.1156 10.7768 32.1156H3.51448C3.40754 32.1155 3.30164 32.1363 3.20282 32.1769C3.104 32.2174 3.01421 32.2769 2.93856 32.3518C2.86292 32.4268 2.80291 32.5159 2.76197 32.6139C2.72102 32.7119 2.69995 32.8169 2.69995 32.923V33.1571C2.70021 33.3141 2.74652 33.4676 2.83323 33.5989C2.91994 33.7302 3.0433 33.8337 3.18826 33.8966H11.1024C11.2474 33.8337 11.3708 33.7303 11.4575 33.599C11.5442 33.4676 11.5905 33.3141 11.5907 33.1571Z" fill="#9FAFDB"/>
</g>
<defs>
<clipPath id="clip0_9818_1068">
<rect width="25" height="36.1765" fill="white" transform="translate(0 0.911743)"/>
</clipPath>
</defs>
</svg>
