<svg width="25" height="46" viewBox="0 0 25 46" fill="none" xmlns="http://www.w3.org/2000/svg">
<path d="M7.07862 13.5116C7.07851 13.4347 7.0937 13.3586 7.1233 13.2876C7.1529 13.2165 7.19635 13.152 7.25114 13.0977C7.30593 13.0433 7.37099 13.0002 7.4426 12.9709C7.51421 12.9415 7.59095 12.9264 7.66844 12.9265H8.24772C8.12571 12.8446 8.02585 12.7341 7.95691 12.6049C7.88798 12.4757 7.85207 12.3317 7.85235 12.1856V12.1052C7.85224 11.9877 7.87549 11.8713 7.92076 11.7626C7.96603 11.654 8.03243 11.5553 8.11618 11.4722C8.19992 11.389 8.29937 11.3231 8.40882 11.2781C8.51828 11.2331 8.63561 11.2099 8.75409 11.2099H10.3704C10.3186 11.1625 10.2667 11.1143 10.2181 11.0637C10.2092 11.0548 10.1995 11.0476 10.1914 11.0387C10.1055 10.9487 10.0245 10.8539 9.94831 10.755C9.92725 10.7285 9.90861 10.6996 9.88836 10.6747C9.83407 10.6007 9.7806 10.5268 9.72632 10.448C9.70201 10.4103 9.67933 10.3677 9.65664 10.3307C9.6137 10.2592 9.57562 10.1869 9.5343 10.1121C9.51162 10.0679 9.49055 10.0221 9.46868 9.9763C9.43384 9.90236 9.40062 9.82762 9.36983 9.75047C9.35039 9.70145 9.33176 9.65243 9.31393 9.6026C9.28558 9.52223 9.25965 9.44187 9.23291 9.3615C9.21833 9.31007 9.20294 9.25863 9.18916 9.2064C9.16648 9.1204 9.14784 9.03281 9.13002 8.9444C9.11949 8.89297 9.10814 8.84153 9.09923 8.78849C9.08303 8.69045 9.07088 8.58919 9.05953 8.48712C9.05467 8.44131 9.04819 8.39711 9.04414 8.3505C9.03199 8.20022 9.02469 8.04832 9.02469 7.89161C9.03662 6.80055 9.30517 5.72731 9.80896 4.75734L9.87377 4.78386L9.88593 4.75814L9.9159 4.7702L9.92238 4.75814C10.5017 4.97915 11.2803 5.38741 11.7542 6.0874C11.768 6.11917 11.789 6.14739 11.8155 6.16988C11.842 6.19238 11.8734 6.20855 11.9072 6.21716C11.941 6.22577 11.9763 6.22659 12.0104 6.21956C12.0446 6.21253 12.0767 6.19784 12.1042 6.1766C12.1584 6.14032 12.2006 6.08908 12.2256 6.02922C12.2507 5.96936 12.2575 5.90352 12.2452 5.83987C12.237 5.79642 12.2199 5.75511 12.195 5.71852C11.6505 4.91486 10.8071 4.4415 10.15 4.1779C10.159 4.16424 10.1687 4.15299 10.1776 4.13933C10.2478 4.03485 10.3207 3.93386 10.3963 3.83635C10.4279 3.79456 10.4612 3.75598 10.4936 3.715C10.5519 3.64347 10.611 3.57436 10.6726 3.50765C10.7075 3.46908 10.7423 3.42729 10.7788 3.39193C10.8663 3.30111 10.9562 3.21432 11.0485 3.13395C11.0882 3.09939 11.1296 3.06885 11.1701 3.0359C11.23 2.98768 11.2908 2.94027 11.3532 2.89607C11.4034 2.8599 11.4536 2.82615 11.5047 2.7932C11.5557 2.76025 11.6214 2.72248 11.6805 2.68953C11.7396 2.65658 11.7818 2.63086 11.8336 2.60916C11.927 2.56367 12.0227 2.52316 12.1204 2.48781C12.1634 2.47254 12.2071 2.45807 12.2509 2.44441C12.0109 2.28522 11.829 2.05373 11.7318 1.78411C11.6347 1.51449 11.6275 1.22103 11.7114 0.94706C11.7953 0.673089 11.9657 0.433125 12.1976 0.262593C12.4294 0.0920615 12.7104 0 12.9991 0C13.2877 0 13.5687 0.0920615 13.8006 0.262593C14.0325 0.433125 14.2029 0.673089 14.2868 0.94706C14.3706 1.22103 14.3634 1.51449 14.2663 1.78411C14.1692 2.05373 13.9872 2.28522 13.7473 2.44441C15.5832 3.00697 16.9718 5.56502 16.9718 7.89563C16.9718 9.31971 16.4509 10.4625 15.6285 11.2171H17.2441C17.483 11.2167 17.7124 11.3103 17.8819 11.4774C18.0514 11.6445 18.1472 11.8714 18.1482 12.1084V12.1888C18.1484 12.3349 18.1124 12.4789 18.0435 12.6081C17.9746 12.7372 17.8748 12.8477 17.7529 12.9297H18.3321C18.4096 12.9296 18.4864 12.9447 18.558 12.9741C18.6296 13.0034 18.6947 13.0465 18.7494 13.1009C18.8042 13.1552 18.8477 13.2198 18.8773 13.2908C18.9069 13.3618 18.9221 13.4379 18.922 13.5148V13.5654C18.922 13.6422 18.9067 13.7183 18.8771 13.7892C18.8474 13.8602 18.8039 13.9246 18.7492 13.9789C18.6944 14.0331 18.6294 14.0761 18.5578 14.1055C18.4862 14.1348 18.4096 14.1498 18.3321 14.1497H17.9603C17.5706 15.72 17.4166 17.2888 17.321 18.8583C17.243 20.4649 17.2511 22.0745 17.3453 23.6803C17.4359 25.2975 17.6253 26.9078 17.9125 28.5022C18.0591 29.3059 18.2293 30.1096 18.4423 30.9132C18.6372 31.6657 18.8761 32.4063 19.1577 33.1313H20.7919V33.4528C20.7919 34.6687 19.7986 34.8777 18.5728 34.8777H20.4362C20.637 34.8786 20.8356 34.9188 21.0207 34.996C21.2057 35.0731 21.3737 35.1857 21.5148 35.3273C21.656 35.4689 21.7676 35.6367 21.8434 35.8212C21.9191 36.0056 21.9574 36.2031 21.9561 36.4022C21.9561 36.6964 21.8698 36.9842 21.7077 37.2305C21.5455 37.4769 21.3146 37.671 21.043 37.7893H22.0153C23.0377 37.7893 23.8665 39.1941 23.8665 40.2083C23.8581 40.5632 23.7794 40.9131 23.6348 41.2378C24.5058 41.6686 25 42.1556 25 42.6724C25 44.4163 19.404 45.8299 12.5004 45.8299C5.59678 45.8299 0 44.4147 0 42.6707C0 42.0013 0.828013 41.3801 2.23612 40.8689C2.17189 40.6538 2.13755 40.431 2.13404 40.2067C2.13404 39.1925 2.96286 37.7877 3.98613 37.7877H4.95431C4.68296 37.6696 4.45213 37.4757 4.28999 37.2297C4.12785 36.9837 4.04142 36.6961 4.04122 36.4022C4.04112 36.2033 4.08052 36.0063 4.15718 35.8225C4.23384 35.6387 4.34626 35.4717 4.48801 35.3311C4.62976 35.1904 4.79806 35.0788 4.9833 35.0026C5.16855 34.9265 5.3671 34.8873 5.56762 34.8873H7.43105C6.20524 34.8873 5.21195 34.6784 5.21195 33.4624V33.141H6.84529C7.12681 32.4159 7.36595 31.6753 7.56149 30.9229C7.77457 30.1192 7.94471 29.3155 8.09136 28.5119C8.37753 26.9174 8.56557 25.3071 8.65444 23.6899C8.74897 22.0842 8.75736 20.4746 8.67955 18.868C8.58395 17.2984 8.43002 15.7337 8.04031 14.1593H7.66844C7.59102 14.1594 7.51434 14.1444 7.44279 14.1151C7.37123 14.0858 7.3062 14.0428 7.25142 13.9885C7.19664 13.9342 7.15318 13.8698 7.12353 13.7989C7.09388 13.7279 7.07862 13.6519 7.07862 13.5751V13.5116Z" fill="#BDCEEB"/>
<path d="M22.0145 42.6257H3.98613C3.17594 42.6257 2.48647 41.7417 2.23612 40.8689C0.828013 41.38 0 42.0013 0 42.6707C0 44.4146 5.59679 45.8283 12.4996 45.8283C19.4024 45.8283 24.9992 44.4146 24.9992 42.6707C24.9992 42.1539 24.505 41.6669 23.634 41.2362C23.318 41.9731 22.7112 42.6257 22.0145 42.6257Z" fill="#9DBDDF"/>
<path d="M10.2157 11.0669C10.2068 11.0581 10.1971 11.0508 10.189 11.042C10.1971 11.0508 10.2084 11.0581 10.2157 11.0669Z" fill="#2D2D7C"/>
<path d="M10.3987 3.83559C10.4303 3.7938 10.4635 3.75522 10.4959 3.71423C10.4635 3.75442 10.4303 3.7938 10.3987 3.83559Z" fill="#2D2D7C"/>
<path d="M10.675 3.50684C10.7099 3.46826 10.7447 3.42647 10.7812 3.39111C10.7447 3.42808 10.7099 3.46826 10.675 3.50684Z" fill="#2D2D7C"/>
<path d="M10.1526 4.17554C10.1607 4.16268 10.1704 4.15063 10.1793 4.13696C10.1712 4.15223 10.1615 4.16348 10.1526 4.17554Z" fill="#2D2D7C"/>
<path d="M9.23613 9.36226C9.22155 9.31083 9.20616 9.25939 9.19238 9.20715C9.20535 9.25939 9.22074 9.31083 9.23613 9.36226Z" fill="#2D2D7C"/>
<path d="M14.1127 7.0687C14.5648 9.2651 14.2861 10.5027 13.7886 11.2132H15.6277C16.4501 10.4585 16.971 9.31573 16.971 7.89165C16.971 5.56104 15.5824 3.00621 13.7465 2.44043C13.5253 2.58786 13.2648 2.66659 12.9983 2.66659C12.7318 2.66659 12.4713 2.58786 12.2501 2.44043C12.2063 2.45409 12.1626 2.46856 12.1196 2.48383C12.6778 2.8945 13.4848 4.0148 14.1127 7.0687Z" fill="#2D2D7C"/>
<path d="M12.1067 6.17738C12.1611 6.14112 12.2035 6.08975 12.2286 6.02971C12.2536 5.96967 12.2603 5.90362 12.2477 5.83984C12.26 5.9035 12.2532 5.96933 12.2282 6.02919C12.2031 6.08905 12.1609 6.1403 12.1067 6.17658C12.071 6.19962 12.0311 6.21546 11.9893 6.22319C12.031 6.21543 12.0709 6.19989 12.1067 6.17738Z" fill="#2D2D7C"/>
<path d="M11.051 3.13076C11.0907 3.0962 11.132 3.06566 11.1726 3.03271C11.132 3.06808 11.0907 3.09861 11.051 3.13076Z" fill="#2D2D7C"/>
<path d="M9.72641 10.4489C9.70211 10.4111 9.67942 10.3685 9.65674 10.3315C9.67942 10.3709 9.70211 10.4111 9.72641 10.4489Z" fill="#2D2D7C"/>
<path d="M12.1065 6.17743C12.0714 6.19994 12.0324 6.21575 11.9915 6.22404C12.0012 6.22404 12.0101 6.23047 12.0207 6.23047C12.0785 6.22747 12.1344 6.20915 12.1827 6.17743C12.2191 6.15324 12.2503 6.12217 12.2745 6.08601C12.2988 6.04984 12.3156 6.00928 12.324 5.96666C12.3324 5.92403 12.3323 5.88018 12.3236 5.8376C12.315 5.79503 12.2979 5.75457 12.2734 5.71854C11.729 4.91488 10.8856 4.44153 10.2285 4.17793C10.7551 3.37989 10.7519 3.26899 11.5143 2.99173C12.0701 3.39999 13.0917 4.48734 13.5065 7.57258C13.7366 9.28518 13.5252 10.4207 12.8163 11.2099H13.7885C14.2835 10.4995 14.5622 9.26187 14.1126 7.06547C13.4847 4.01157 12.6777 2.89127 12.1219 2.48462C12.025 2.52005 11.9301 2.56056 11.8375 2.60597C11.7857 2.63089 11.7355 2.66142 11.6844 2.68634C11.6334 2.71125 11.5661 2.75304 11.5086 2.79001C11.4511 2.82698 11.4073 2.85671 11.3571 2.89288C11.2947 2.93708 11.234 2.98449 11.174 3.03271C11.1335 3.06566 11.093 3.0962 11.0525 3.13076C10.9601 3.21113 10.8702 3.29792 10.7827 3.38874C10.7462 3.4257 10.7114 3.4691 10.6765 3.50446C10.615 3.57117 10.5558 3.64028 10.4975 3.71181C10.4651 3.75119 10.4319 3.79217 10.4003 3.83316C10.3252 3.93013 10.2523 4.03113 10.1815 4.13614C10.1726 4.1498 10.1629 4.16185 10.1548 4.17471C10.8118 4.43831 11.6553 4.91087 12.1997 5.71533C12.2247 5.75192 12.2418 5.79323 12.2499 5.83668C12.263 5.90119 12.2563 5.96808 12.2307 6.02879C12.2052 6.0895 12.1619 6.14126 12.1065 6.17743Z" fill="#505CA6"/>
<path d="M10.6232 11.2132C9.85025 10.7752 9.38358 10.0454 9.21425 8.93318C9.1395 8.58991 9.10255 8.2396 9.10407 7.88842C9.11572 6.80722 9.38002 5.74343 9.87618 4.78067L9.81136 4.75415C9.30755 5.72411 9.039 6.79735 9.0271 7.88842C9.0271 8.04915 9.03439 8.19702 9.04654 8.34731C9.04654 8.39392 9.05708 8.43812 9.06194 8.48393C9.07328 8.586 9.08543 8.68726 9.10164 8.7853C9.11055 8.83834 9.12189 8.88978 9.13242 8.94121C9.15025 9.02961 9.16888 9.11721 9.19157 9.20321C9.20534 9.25544 9.22073 9.30688 9.23532 9.35831C9.25962 9.43868 9.28555 9.51904 9.31634 9.59941C9.33416 9.64924 9.3528 9.69826 9.37224 9.74728C9.40303 9.82765 9.43625 9.89917 9.47108 9.97311C9.49296 10.0189 9.51402 10.0647 9.53671 10.1089C9.57479 10.1837 9.61773 10.256 9.65905 10.3275C9.68173 10.3669 9.70442 10.4079 9.72872 10.4449C9.77896 10.5252 9.83243 10.5976 9.89076 10.6715C9.91102 10.6988 9.92965 10.7277 9.95072 10.7519C10.0317 10.8507 10.1128 10.9455 10.1938 11.0355C10.2019 11.0444 10.2116 11.0516 10.2205 11.0605C10.2691 11.1111 10.321 11.1593 10.3728 11.2067L10.6232 11.2132Z" fill="#505CA6"/>
<path d="M9.10405 7.89246C9.10253 8.24364 9.13948 8.59395 9.21423 8.93721C9.0025 7.51066 9.24882 6.05418 9.91829 4.77426L9.88831 4.76221L9.87616 4.78792C9.38048 5.74971 9.1162 6.81234 9.10405 7.89246Z" fill="#7582BF"/>
<path d="M13.5075 7.57573C13.0927 4.48727 12.0711 3.3967 11.5153 2.99487C10.7529 3.27214 10.7561 3.38304 10.2295 4.18107C10.8866 4.44467 11.73 4.91722 12.2744 5.72169C12.2989 5.75771 12.3159 5.79817 12.3246 5.84075C12.3333 5.88332 12.3334 5.92718 12.325 5.9698C12.3166 6.01243 12.2997 6.05298 12.2755 6.08915C12.2512 6.12532 12.22 6.15639 12.1837 6.18058C12.1354 6.2123 12.0794 6.23061 12.0216 6.23362C12.0259 6.23398 12.0303 6.23398 12.0346 6.23362C12.1008 6.2341 12.1655 6.21447 12.2201 6.17736C12.2568 6.15349 12.2884 6.12265 12.313 6.08663C12.3377 6.05061 12.3549 6.01011 12.3637 5.96747C12.3725 5.92482 12.3727 5.88087 12.3644 5.83814C12.356 5.79541 12.3392 5.75474 12.3149 5.71847C11.7705 4.91481 10.9271 4.44146 10.27 4.17786C10.6006 3.62976 10.7683 3.2641 11.2147 3.33C11.7705 3.73826 12.8675 4.81677 13.2069 7.91085C13.3503 9.2176 13.0538 10.542 12.5248 11.2099H12.8213C13.5302 10.4239 13.7376 9.28832 13.5075 7.57573Z" fill="#7582BF"/>
<path d="M9.14047 7.8924C9.13874 8.24199 9.16338 8.59122 9.21419 8.93716C9.38352 10.0494 9.85019 10.7791 10.6231 11.2171H12.5206C13.0496 10.5493 13.3462 9.22487 13.2028 7.92213C12.8633 4.82483 11.7663 3.74311 11.2105 3.34128C10.7641 3.27538 10.5964 3.64104 10.2658 4.18914C10.9229 4.45274 11.7663 4.92529 12.3107 5.72975C12.3352 5.76583 12.3522 5.80633 12.3608 5.84893C12.3694 5.89154 12.3695 5.93542 12.361 5.97804C12.3525 6.02067 12.3356 6.06122 12.3112 6.09736C12.2869 6.1335 12.2556 6.16452 12.2192 6.18864C12.1646 6.22575 12.0998 6.24538 12.0337 6.2449C12.0293 6.24526 12.025 6.24526 12.0207 6.2449C12.0102 6.2449 12.0012 6.23927 11.9915 6.23847C11.9452 6.23373 11.9005 6.21915 11.8603 6.19571C11.8202 6.17227 11.7856 6.14053 11.759 6.10265C11.2826 5.3874 10.504 4.97914 9.92473 4.75813L9.91825 4.77019C9.41868 5.73711 9.15242 6.80595 9.14047 7.8924Z" fill="#9FAFDB"/>
<path d="M18.7721 33.3306C18.7591 33.9438 18.2941 34.4373 17.7188 34.4373H6.64354C6.06183 34.4373 5.5903 33.9318 5.5903 33.3073H6.77885C6.80315 33.2511 6.82341 33.194 6.84528 33.137H5.21194V33.4584C5.21194 34.6744 6.20523 34.8833 7.43105 34.8833H5.56761C5.36676 34.8833 5.16787 34.9226 4.98236 34.999C4.79685 35.0754 4.62837 35.1874 4.48657 35.3285C4.34476 35.4696 4.23243 35.6371 4.15601 35.8213C4.07959 36.0056 4.04058 36.203 4.04122 36.4022C4.0411 36.6964 4.12739 36.9843 4.28955 37.2306C4.4517 37.477 4.6827 37.6711 4.9543 37.7893H3.98612C2.96286 37.7893 2.13403 39.1941 2.13403 40.2084C2.13754 40.4327 2.17189 40.6555 2.23612 40.8706C2.48647 41.7433 3.17432 42.6274 3.98612 42.6274H22.0144C22.7112 42.6274 23.318 41.9748 23.6348 41.2378C23.7794 40.9131 23.8581 40.5633 23.8665 40.2084C23.8665 39.1941 23.0377 37.7893 22.0153 37.7893H21.043C21.3146 37.671 21.5455 37.4769 21.7077 37.2306C21.8698 36.9842 21.9561 36.6964 21.9561 36.4022C21.9561 36.0005 21.7952 35.6151 21.5088 35.331C21.2224 35.0469 20.8339 34.8873 20.4289 34.8873H18.5655C19.7913 34.8873 20.7846 34.6784 20.7846 33.4624V33.141H19.1545C19.1804 33.2061 19.2031 33.2704 19.2298 33.3347L18.7721 33.3306ZM21.4967 39.6691C21.4967 40.1431 21.3069 40.5978 20.969 40.9329C20.6311 41.2681 20.1728 41.4564 19.6949 41.4564H4.67884C4.20095 41.4564 3.74264 41.2681 3.40473 40.9329C3.06681 40.5978 2.87698 40.1431 2.87698 39.6691C2.87698 39.1951 3.06681 38.7405 3.40473 38.4053C3.74264 38.0701 4.20095 37.8818 4.67884 37.8818H19.6949C19.9315 37.8817 20.1659 37.9278 20.3845 38.0176C20.6032 38.1074 20.8019 38.239 20.9692 38.405C21.1366 38.571 21.2693 38.7681 21.3598 38.985C21.4503 39.2019 21.4968 39.4344 21.4967 39.6691ZM18.8037 36.1515C18.8041 36.3004 18.7749 36.448 18.7177 36.5857C18.6605 36.7234 18.5765 36.8486 18.4704 36.954C18.3644 37.0594 18.2384 37.143 18.0997 37.2C17.9609 37.2571 17.8123 37.2864 17.6621 37.2863H5.68266C5.53286 37.2863 5.38452 37.257 5.24612 37.2001C5.10771 37.1433 4.98196 37.0599 4.87603 36.9548C4.7701 36.8498 4.68608 36.725 4.62875 36.5877C4.57142 36.4504 4.54191 36.3033 4.54191 36.1547C4.5417 35.9267 4.6113 35.7041 4.74152 35.5162C4.87173 35.3283 5.05641 35.1841 5.27108 35.1027C5.3919 35.0501 5.52235 35.0227 5.6543 35.0223H17.6621C17.9644 35.0221 18.2544 35.1409 18.4684 35.3526C18.6824 35.5643 18.803 35.8517 18.8037 36.1515Z" fill="#2D2D7C"/>
<path d="M8.67951 18.8551C8.75732 20.4617 8.74893 22.0713 8.6544 23.6771C8.56553 25.2942 8.37749 26.9045 8.09132 28.499C7.94467 29.3027 7.77453 30.1063 7.56145 30.91C7.3659 31.6624 7.12677 32.403 6.84524 33.1281C6.82337 33.1852 6.80311 33.2422 6.77881 33.2985H18.7745C18.7745 33.3065 18.7745 33.3145 18.7745 33.3218H19.2322C19.2055 33.2575 19.1828 33.1932 19.1569 33.1281C18.8752 32.4031 18.6364 31.6625 18.4415 30.91C18.2284 30.1063 18.0583 29.3027 17.9116 28.499C17.6245 26.9046 17.4351 25.2943 17.3445 23.6771C17.2502 22.0713 17.2421 20.4617 17.3202 18.8551C17.4158 17.2856 17.5697 15.7209 17.9594 14.1465H8.04027C8.42997 15.7168 8.58796 17.2856 8.67951 18.8551ZM9.55046 18.5795C9.46215 17.1192 9.32766 15.6598 9.00602 14.1995H14.3735V33.0309H7.72997C8.00431 32.3073 8.238 31.5692 8.42997 30.82C8.64386 30.0035 8.814 29.1878 8.95984 28.372C9.24749 26.7525 9.43687 25.1174 9.52697 23.4754C9.62108 21.8449 9.62892 20.2107 9.55046 18.5795Z" fill="#2D2D7C"/>
<path d="M7.66843 14.1465H18.3321C18.4096 14.1466 18.4862 14.1315 18.5578 14.1022C18.6293 14.0729 18.6944 14.0299 18.7492 13.9756C18.8039 13.9214 18.8474 13.8569 18.877 13.786C18.9067 13.715 18.922 13.639 18.922 13.5622V13.5116C18.9221 13.4347 18.9069 13.3586 18.8773 13.2876C18.8477 13.2165 18.8042 13.152 18.7494 13.0976C18.6946 13.0433 18.6296 13.0002 18.558 12.9708C18.4864 12.9415 18.4096 12.9264 18.3321 12.9265H17.7529C17.6032 13.0272 17.4265 13.081 17.2457 13.0808H15.6366C15.7018 13.1179 15.7561 13.1713 15.7942 13.2355C15.8322 13.2998 15.8528 13.3728 15.8538 13.4473C15.8538 13.5626 15.8076 13.6732 15.7254 13.7547C15.6432 13.8363 15.5317 13.8821 15.4155 13.8821H7.89204C7.83295 13.8846 7.77396 13.8752 7.71861 13.8545C7.66327 13.8338 7.61272 13.8022 7.57 13.7617C7.52729 13.7211 7.4933 13.6723 7.47008 13.6184C7.44686 13.5644 7.43489 13.5064 7.43489 13.4477C7.43489 13.389 7.44686 13.331 7.47008 13.277C7.4933 13.223 7.52729 13.1743 7.57 13.1337C7.61272 13.0931 7.66327 13.0615 7.71861 13.0408C7.77396 13.0202 7.83295 13.0108 7.89204 13.0133H8.41056C8.35378 12.9898 8.29949 12.9607 8.24853 12.9265H7.66843C7.59095 12.9264 7.5142 12.9415 7.44259 12.9708C7.37098 13.0002 7.30592 13.0433 7.25113 13.0976C7.19634 13.152 7.1529 13.2165 7.12329 13.2876C7.09369 13.3586 7.07851 13.4347 7.07861 13.5116V13.5622C7.07861 13.639 7.09388 13.715 7.12353 13.786C7.15318 13.8569 7.19664 13.9214 7.25142 13.9756C7.3062 14.0299 7.37122 14.0729 7.44278 14.1022C7.51433 14.1315 7.59101 14.1466 7.66843 14.1465Z" fill="#2D2D7C"/>
<path d="M11.8238 13.0158H15.4162C15.4948 13.0175 15.5714 13.0409 15.6374 13.0833H17.2456C17.3644 13.0834 17.482 13.0602 17.5917 13.0151C17.7014 12.97 17.8011 12.9039 17.8849 12.8205C17.9688 12.737 18.0352 12.638 18.0804 12.5291C18.1256 12.4201 18.1486 12.3034 18.1482 12.1856V12.1052C18.1482 11.8678 18.0531 11.6401 17.8838 11.4722C17.7146 11.3043 17.485 11.21 17.2456 11.21H8.75404C8.63555 11.21 8.51823 11.2331 8.40877 11.2781C8.29931 11.3231 8.19987 11.3891 8.11612 11.4722C8.03238 11.5554 7.96597 11.6541 7.92071 11.7627C7.87544 11.8713 7.85219 11.9877 7.8523 12.1052V12.1856C7.85202 12.3318 7.88792 12.4758 7.95686 12.605C8.02579 12.7342 8.12565 12.8446 8.24767 12.9266C8.29864 12.9608 8.35292 12.9899 8.40971 13.0134L11.8238 13.0158ZM8.34489 12.1422C8.34489 12.0486 8.36348 11.9559 8.39959 11.8694C8.43571 11.7829 8.48864 11.7043 8.55538 11.6381C8.62211 11.572 8.70133 11.5194 8.78852 11.4836C8.87571 11.4478 8.96916 11.4294 9.06353 11.4294H13.8436C13.938 11.4294 14.0315 11.4478 14.1187 11.4836C14.2058 11.5194 14.2851 11.572 14.3518 11.6381C14.4185 11.7043 14.4715 11.7829 14.5076 11.8694C14.5437 11.9559 14.5623 12.0486 14.5623 12.1422V12.1518C14.5623 12.3409 14.4866 12.5222 14.3518 12.6559C14.217 12.7896 14.0342 12.8647 13.8436 12.8647H9.06353C8.87293 12.8647 8.69015 12.7896 8.55538 12.6559C8.4206 12.5222 8.34489 12.3409 8.34489 12.1518V12.1422Z" fill="#2D2D7C"/>
<path d="M13.7488 2.44034C14.0156 2.26229 14.209 1.99513 14.2939 1.68748C14.3788 1.37984 14.3495 1.05218 14.2113 0.764176C14.0732 0.476171 13.8353 0.246972 13.5411 0.118317C13.2468 -0.010339 12.9158 -0.0298945 12.6082 0.0632112C12.3007 0.156317 12.0371 0.355891 11.8654 0.625592C11.6937 0.895293 11.6254 1.21718 11.6729 1.53265C11.7204 1.84811 11.8805 2.13617 12.1241 2.34436C12.3677 2.55255 12.6786 2.66704 13.0002 2.66697C13.2669 2.66676 13.5274 2.58787 13.7488 2.44034ZM11.8586 1.21877C11.8586 1.01214 11.9204 0.810148 12.0361 0.638339C12.1519 0.466529 12.3164 0.33262 12.5088 0.253545C12.7013 0.17447 12.913 0.15378 13.1173 0.194093C13.3217 0.234405 13.5093 0.333908 13.6566 0.48002C13.8039 0.626132 13.9042 0.812289 13.9449 1.01495C13.9855 1.21762 13.9647 1.42768 13.8849 1.61858C13.8052 1.80949 13.6702 1.97266 13.497 2.08746C13.3238 2.20226 13.1202 2.26353 12.9119 2.26353C12.6325 2.26353 12.3646 2.15346 12.1671 1.95753C11.9696 1.7616 11.8586 1.49586 11.8586 1.21877Z" fill="#2D2D7C"/>
<path d="M13.8841 13.0158C13.9297 13.0157 13.9748 13.0245 14.017 13.0417C14.0591 13.059 14.0973 13.0843 14.1296 13.1163C14.1618 13.1483 14.1873 13.1862 14.2047 13.228C14.2221 13.2698 14.231 13.3145 14.2309 13.3597V13.367C14.231 13.4122 14.2221 13.457 14.2047 13.4987C14.1873 13.5405 14.1618 13.5785 14.1296 13.6104C14.0973 13.6424 14.0591 13.6677 14.017 13.685C13.9748 13.7022 13.9297 13.7111 13.8841 13.7109H7.99324C7.94764 13.7111 7.90246 13.7022 7.86029 13.685C7.81813 13.6678 7.77981 13.6424 7.74752 13.6105C7.71523 13.5785 7.68962 13.5406 7.67214 13.4988C7.65467 13.457 7.64567 13.4122 7.64567 13.367V13.3597C7.64567 13.3145 7.65467 13.2697 7.67214 13.2279C7.68962 13.1861 7.71523 13.1482 7.74752 13.1162C7.77981 13.0843 7.81813 13.059 7.86029 13.0417C7.90246 13.0245 7.94764 13.0157 7.99324 13.0158H7.89197C7.83288 13.0133 7.77388 13.0226 7.71854 13.0433C7.66319 13.064 7.61264 13.0956 7.56993 13.1362C7.52722 13.1768 7.49323 13.2255 7.47001 13.2795C7.44679 13.3334 7.43481 13.3915 7.43481 13.4502C7.43481 13.5088 7.44679 13.5669 7.47001 13.6209C7.49323 13.6748 7.52722 13.7235 7.56993 13.7641C7.61264 13.8047 7.66319 13.8363 7.71854 13.857C7.77388 13.8777 7.83288 13.8871 7.89197 13.8845H15.4162C15.5324 13.8845 15.6439 13.8387 15.7261 13.7572C15.8083 13.6757 15.8545 13.5651 15.8545 13.4498C15.8535 13.3752 15.833 13.3022 15.7949 13.238C15.7568 13.1737 15.7025 13.1204 15.6374 13.0833C15.5714 13.0409 15.4948 13.0175 15.4162 13.0158H13.8841Z" fill="#505CA6"/>
<path d="M7.64575 13.3573V13.3645C7.64575 13.4097 7.65475 13.4545 7.67222 13.4963C7.6897 13.5381 7.71532 13.5761 7.7476 13.608C7.77989 13.64 7.81821 13.6653 7.86037 13.6825C7.90254 13.6998 7.94772 13.7086 7.99332 13.7085H13.8842C13.9298 13.7086 13.9749 13.6998 14.017 13.6825C14.0592 13.6653 14.0974 13.6399 14.1296 13.608C14.1619 13.576 14.1874 13.538 14.2048 13.4963C14.2222 13.4545 14.2311 13.4097 14.231 13.3645V13.3573C14.2311 13.3121 14.2222 13.2673 14.2048 13.2255C14.1874 13.1837 14.1619 13.1458 14.1296 13.1138C14.0974 13.0819 14.0592 13.0565 14.017 13.0393C13.9749 13.022 13.9298 13.0132 13.8842 13.0133H11.8239C11.887 13.0143 11.9471 13.0397 11.9917 13.0839C12.0363 13.1281 12.0619 13.1878 12.0629 13.2504V13.305C12.0629 13.3683 12.0379 13.429 11.9932 13.4741C11.9484 13.5192 11.8877 13.5451 11.8239 13.5461H8.18291C8.11844 13.5461 8.05662 13.5207 8.01104 13.4755C7.96546 13.4303 7.93985 13.369 7.93985 13.305V13.2504C7.94091 13.1871 7.96699 13.1268 8.01246 13.0825C8.05792 13.0381 8.11914 13.0133 8.18291 13.0133H7.99332C7.94772 13.0132 7.90254 13.022 7.86037 13.0393C7.81821 13.0565 7.77989 13.0818 7.7476 13.1138C7.71532 13.1457 7.6897 13.1837 7.67222 13.2255C7.65475 13.2672 7.64575 13.312 7.64575 13.3573Z" fill="#7582BF"/>
<path d="M7.94458 13.2504V13.305C7.94458 13.369 7.97019 13.4303 8.01577 13.4755C8.06135 13.5207 8.12317 13.5461 8.18764 13.5461H11.827C11.8908 13.5451 11.9516 13.5192 11.9963 13.4741C12.041 13.429 12.066 13.3683 12.066 13.305V13.2504C12.065 13.1878 12.0395 13.1281 11.9949 13.0839C11.9503 13.0396 11.8901 13.0143 11.827 13.0133H8.18278C8.11985 13.0145 8.05987 13.0399 8.01545 13.0842C7.97102 13.1284 7.94562 13.188 7.94458 13.2504Z" fill="#9FAFDB"/>
<path d="M14.3735 14.1995H12.4995V33.0308H14.3735V14.1995Z" fill="#505CA6"/>
<path d="M8.96156 28.372C8.81572 29.1877 8.64558 30.0034 8.43169 30.8199C8.23972 31.5691 8.00603 32.3072 7.73169 33.0308H7.73655C8.011 32.3073 8.24442 31.5692 8.43574 30.8199C8.64963 30.0034 8.81977 29.1877 8.96561 28.372C9.25325 26.7525 9.44264 25.1173 9.53274 23.4753C9.62671 21.8449 9.63482 20.2107 9.55705 18.5794C9.46954 17.1192 9.33424 15.6597 9.0126 14.1995C9.33667 15.6597 9.46873 17.1192 9.55705 18.5794C9.63496 20.2107 9.62658 21.8449 9.53193 23.4753C9.44076 25.1174 9.25029 26.7525 8.96156 28.372Z" fill="#505CA6"/>
<path d="M12.4995 14.1995H11.7266V33.0308H12.4995V14.1995Z" fill="#7582BF"/>
<path d="M9.53032 23.4753C9.44022 25.1173 9.25083 26.7525 8.96319 28.372C8.81735 29.1877 8.64721 30.0034 8.43332 30.8199C8.242 31.5692 8.00858 32.3073 7.73413 33.0308H8.50705C8.78139 32.3072 9.01508 31.5691 9.20705 30.8199C9.42013 30.0034 9.59027 29.1877 9.73692 28.372C10.0246 26.7525 10.214 25.1173 10.3041 23.4753C10.3987 21.8449 10.4071 20.2107 10.3292 18.5794C10.2417 17.1192 10.1064 15.6597 9.78472 14.1995H9.0118C9.33587 15.6597 9.46875 17.1192 9.55625 18.5794C9.63348 20.2107 9.62483 21.8449 9.53032 23.4753Z" fill="#7582BF"/>
<path d="M10.3025 23.4753C10.2124 25.1173 10.023 26.7525 9.73533 28.372C9.58868 29.1877 9.41854 30.0034 9.20546 30.8199C9.01402 31.5691 8.78087 32.3072 8.50708 33.0308H11.7243V14.1995H9.77989C10.104 15.6597 10.2368 17.1192 10.3243 18.5794C10.4033 20.2106 10.396 21.8448 10.3025 23.4753Z" fill="#9FAFDB"/>
<path d="M2.87695 39.6691C2.87695 40.1431 3.06679 40.5977 3.40471 40.9329C3.74262 41.2681 4.20093 41.4564 4.67881 41.4564H19.6949C20.1727 41.4564 20.631 41.2681 20.969 40.9329C21.3069 40.5977 21.4967 40.1431 21.4967 39.6691C21.4967 39.195 21.3069 38.7404 20.969 38.4052C20.631 38.07 20.1727 37.8817 19.6949 37.8817H4.67881C4.20093 37.8817 3.74262 38.07 3.40471 38.4052C3.06679 38.7404 2.87695 39.195 2.87695 39.6691ZM16.0984 38.0505C16.4618 38.0505 16.8103 38.1937 17.0672 38.4485C17.3241 38.7034 17.4685 39.049 17.4685 39.4095C17.4685 39.7699 17.3241 40.1156 17.0672 40.3704C16.8103 40.6253 16.4618 40.7685 16.0984 40.7685H4.67881C4.37442 40.7697 4.07834 40.67 3.83761 40.4853C3.59687 40.3005 3.42531 40.0412 3.35017 39.7486C3.27503 39.456 3.30062 39.1469 3.42289 38.8704C3.54516 38.5939 3.75709 38.3658 4.02499 38.2225C4.18356 38.1106 4.37327 38.0505 4.56782 38.0505H16.0984Z" fill="#505CA6"/>
<path d="M13.3964 38.9884C13.3964 39.2374 13.2967 39.4761 13.1192 39.6521C12.9418 39.8282 12.7011 39.9271 12.4501 39.9271H4.56776C4.3668 39.9273 4.17102 39.8639 4.00887 39.7461C3.84672 39.6283 3.72666 39.4624 3.66613 39.2723C3.60559 39.0822 3.60775 38.8779 3.67227 38.6891C3.7368 38.5003 3.86034 38.3369 4.02493 38.2225C3.75703 38.3659 3.5451 38.5939 3.42284 38.8704C3.30057 39.1469 3.27497 39.456 3.35011 39.7486C3.42525 40.0412 3.59682 40.3005 3.83755 40.4853C4.07828 40.6701 4.37437 40.7698 4.67876 40.7685H16.1024C16.4658 40.7685 16.8142 40.6253 17.0712 40.3705C17.3281 40.1156 17.4725 39.7699 17.4725 39.4095C17.4725 39.0491 17.3281 38.7034 17.0712 38.4486C16.8142 38.1937 16.4658 38.0505 16.1024 38.0505H12.4566C12.7063 38.0522 12.9452 38.1518 13.1212 38.3274C13.2973 38.5031 13.3962 38.7407 13.3964 38.9884Z" fill="#7582BF"/>
<path d="M4.56778 38.0505C4.32171 38.0576 4.08813 38.1596 3.91662 38.3348C3.74511 38.5099 3.64917 38.7445 3.64917 38.9887C3.64917 39.2329 3.74511 39.4675 3.91662 39.6427C4.08813 39.8179 4.32171 39.9198 4.56778 39.927H12.4501C12.5767 39.9307 12.7027 39.9091 12.8207 39.8636C12.9387 39.8181 13.0463 39.7496 13.1371 39.6621C13.2279 39.5746 13.3001 39.4699 13.3494 39.3543C13.3987 39.2386 13.4241 39.1143 13.4241 38.9887C13.4241 38.8631 13.3987 38.7388 13.3494 38.6232C13.3001 38.5075 13.2279 38.4028 13.1371 38.3153C13.0463 38.2279 12.9387 38.1593 12.8207 38.1138C12.7027 38.0683 12.5767 38.0468 12.4501 38.0505H4.56778Z" fill="#9FAFDB"/>
<path d="M17.662 35.0199H15.814C16.0706 35.0199 16.3166 35.121 16.498 35.3009C16.6794 35.4809 16.7814 35.725 16.7814 35.9795C16.7814 36.234 16.6794 36.478 16.498 36.658C16.3166 36.8379 16.0706 36.939 15.814 36.939H5.65341C5.39685 36.939 5.1508 36.8379 4.96938 36.658C4.78796 36.478 4.68604 36.234 4.68604 35.9795C4.68604 35.7922 4.74137 35.609 4.84519 35.4526C4.94901 35.2962 5.09677 35.1735 5.27019 35.0995C5.05551 35.1809 4.87084 35.3251 4.74062 35.5129C4.61041 35.7008 4.5408 35.9235 4.54102 36.1515C4.54059 36.3004 4.56981 36.4479 4.627 36.5856C4.68419 36.7234 4.76822 36.8485 4.87427 36.9539C4.98033 37.0594 5.10633 37.143 5.24503 37.2C5.38374 37.257 5.53243 37.2863 5.68258 37.2862H17.662C17.8118 37.2862 17.9602 37.2569 18.0986 37.2001C18.237 37.1432 18.3627 37.0599 18.4687 36.9548C18.5746 36.8497 18.6586 36.725 18.7159 36.5877C18.7733 36.4504 18.8028 36.3033 18.8028 36.1547C18.8032 36.0058 18.774 35.8583 18.7169 35.7207C18.6597 35.583 18.5758 35.4579 18.4698 35.3525C18.3638 35.247 18.2379 35.1634 18.0993 35.1063C17.9607 35.0493 17.8121 35.0199 17.662 35.0199Z" fill="#505CA6"/>
<path d="M4.68604 35.9795C4.68604 36.234 4.78795 36.478 4.96937 36.658C5.15079 36.8379 5.39684 36.939 5.6534 36.939H15.814C16.0705 36.939 16.3166 36.8379 16.498 36.658C16.6794 36.478 16.7813 36.234 16.7813 35.9795C16.7813 35.725 16.6794 35.4809 16.498 35.3009C16.3166 35.121 16.0705 35.0199 15.814 35.0199H5.6534C5.39723 35.0212 5.15192 35.1227 4.97078 35.3024C4.78964 35.482 4.68731 35.7254 4.68604 35.9795ZM5.16729 35.883C5.16729 35.7063 5.23805 35.5369 5.36401 35.4119C5.48997 35.287 5.6608 35.2168 5.83893 35.2168H11.8287C12.0067 35.217 12.1773 35.2873 12.3031 35.4122C12.4288 35.5371 12.4995 35.7065 12.4995 35.883V36.0759C12.4995 36.2525 12.4288 36.4218 12.3031 36.5467C12.1773 36.6716 12.0067 36.7419 11.8287 36.7421H5.83893C5.6608 36.7421 5.48997 36.6719 5.36401 36.547C5.23805 36.4221 5.16729 36.2526 5.16729 36.0759V35.883Z" fill="#7582BF"/>
<path d="M11.828 35.2168H5.83913C5.46819 35.2168 5.16748 35.5151 5.16748 35.883V36.0751C5.16748 36.4431 5.46819 36.7413 5.83913 36.7413H11.828C12.199 36.7413 12.4997 36.4431 12.4997 36.0751V35.883C12.4997 35.5151 12.199 35.2168 11.828 35.2168Z" fill="#9FAFDB"/>
<path d="M6.64358 34.4373H17.7189C18.2933 34.4373 18.7583 33.9439 18.7721 33.3307C18.7721 33.3234 18.7721 33.3154 18.7721 33.3074H5.59033C5.59033 33.9318 6.06267 34.4373 6.64358 34.4373Z" fill="#505CA6"/>
<path d="M9.06605 12.8647H13.8462C13.9405 12.8647 14.034 12.8462 14.1212 12.8104C14.2084 12.7746 14.2876 12.7221 14.3543 12.6559C14.421 12.5897 14.474 12.5111 14.5101 12.4246C14.5462 12.3381 14.5648 12.2454 14.5648 12.1518V12.1422C14.5648 12.0486 14.5462 11.9559 14.5101 11.8694C14.474 11.7829 14.421 11.7043 14.3543 11.6381C14.2876 11.5719 14.2084 11.5194 14.1212 11.4836C14.034 11.4478 13.9405 11.4293 13.8462 11.4293H12.3838C12.523 11.4293 12.6565 11.4842 12.755 11.5819C12.8535 11.6795 12.9088 11.812 12.9088 11.9501V12.0104C12.9088 12.1485 12.8535 12.2809 12.755 12.3786C12.6565 12.4763 12.523 12.5311 12.3838 12.5311H9.1098C8.97056 12.5311 8.83702 12.4763 8.73857 12.3786C8.64011 12.2809 8.5848 12.1485 8.5848 12.0104V11.9501C8.5848 11.812 8.64011 11.6795 8.73857 11.5819C8.83702 11.4842 8.97056 11.4293 9.1098 11.4293H9.06605C8.97168 11.4293 8.87823 11.4478 8.79104 11.4836C8.70385 11.5194 8.62463 11.5719 8.5579 11.6381C8.49116 11.7043 8.43823 11.7829 8.40211 11.8694C8.366 11.9559 8.34741 12.0486 8.34741 12.1422V12.1518C8.34741 12.2454 8.366 12.3381 8.40211 12.4246C8.43823 12.5111 8.49116 12.5897 8.5579 12.6559C8.62463 12.7221 8.70385 12.7746 8.79104 12.8104C8.87823 12.8462 8.97168 12.8647 9.06605 12.8647Z" fill="#505CA6"/>
<path d="M8.58789 11.9501V12.0104C8.58789 12.1485 8.6432 12.2809 8.74166 12.3786C8.84012 12.4763 8.97365 12.5311 9.11289 12.5311H12.3869C12.5261 12.5311 12.6596 12.4763 12.7581 12.3786C12.8566 12.2809 12.9119 12.1485 12.9119 12.0104V11.9501C12.9119 11.812 12.8566 11.6795 12.7581 11.5819C12.6596 11.4842 12.5261 11.4293 12.3869 11.4293H11.5418C11.6508 11.4293 11.7553 11.4722 11.8323 11.5487C11.9093 11.6251 11.9526 11.7287 11.9526 11.8368V11.9469C11.9526 12.0003 11.942 12.0533 11.9213 12.1027C11.9007 12.1521 11.8704 12.1969 11.8322 12.2347C11.7941 12.2725 11.7488 12.3024 11.699 12.3228C11.6491 12.3432 11.5957 12.3536 11.5418 12.3535H9.21012C9.15621 12.3536 9.10282 12.3432 9.05298 12.3228C9.00315 12.3024 8.95786 12.2725 8.91971 12.2347C8.88156 12.1969 8.85129 12.1521 8.83063 12.1027C8.80998 12.0533 8.79935 12.0003 8.79935 11.9469V11.8368C8.79935 11.7287 8.84263 11.6251 8.91966 11.5487C8.99669 11.4722 9.10117 11.4293 9.21012 11.4293H9.10965C8.97098 11.4302 8.83827 11.4854 8.74051 11.583C8.64276 11.6806 8.58789 11.8125 8.58789 11.9501Z" fill="#7582BF"/>
<path d="M8.79956 11.8368V11.9469C8.79956 12.0003 8.81019 12.0533 8.83084 12.1027C8.8515 12.1521 8.88177 12.1969 8.91992 12.2347C8.95807 12.2725 9.00336 12.3024 9.05319 12.3228C9.10303 12.3432 9.15642 12.3536 9.21033 12.3535H11.5421C11.596 12.3536 11.6494 12.3432 11.6992 12.3228C11.749 12.3024 11.7943 12.2725 11.8325 12.2347C11.8706 12.1969 11.9009 12.1521 11.9215 12.1027C11.9422 12.0533 11.9528 12.0003 11.9528 11.9469V11.8368C11.9528 11.7287 11.9095 11.6251 11.8325 11.5487C11.7555 11.4722 11.651 11.4293 11.5421 11.4293H9.21033C9.10138 11.4293 8.9969 11.4722 8.91987 11.5487C8.84284 11.6251 8.79956 11.7287 8.79956 11.8368Z" fill="#9FAFDB"/>
<path d="M13.9581 1.21882C13.9581 1.01202 13.8962 0.809866 13.7803 0.63797C13.6644 0.466075 13.4996 0.33217 13.3069 0.253214C13.1142 0.174258 12.9023 0.153805 12.6978 0.194443C12.4934 0.235082 12.3058 0.334985 12.1586 0.4815C12.0115 0.628014 11.9115 0.814547 11.8713 1.01747C11.8311 1.2204 11.8526 1.43059 11.9329 1.62142C12.0132 1.81226 12.1489 1.97515 12.3226 2.08946C12.4963 2.20378 12.7004 2.26437 12.9089 2.26358C13.1875 2.26251 13.4544 2.15197 13.651 1.95616C13.8476 1.76034 13.9581 1.49521 13.9581 1.21882ZM11.9399 1.04925C11.9399 1.03237 11.9399 1.0163 11.9455 0.999422C11.9512 0.982546 11.9399 0.982546 11.9399 0.973705C11.9434 0.948487 11.9485 0.923521 11.9553 0.898965V0.894947C11.9696 0.796839 12.0099 0.704239 12.0719 0.626525C12.0888 0.602195 12.1078 0.579342 12.1286 0.558214C12.2459 0.425387 12.4064 0.337642 12.5823 0.310305C12.7581 0.282968 12.938 0.317779 13.0906 0.408656C13.2432 0.499533 13.3587 0.640698 13.417 0.807491C13.4754 0.974283 13.4728 1.1561 13.4097 1.32118C13.3466 1.48625 13.227 1.6241 13.0719 1.71063C12.9168 1.79715 12.7359 1.82687 12.561 1.79457C12.386 1.76228 12.228 1.67003 12.1146 1.53395C12.0013 1.39786 11.9397 1.22659 11.9407 1.05005L11.9399 1.04925Z" fill="#505CA6"/>
<path d="M13.4669 1.04923C13.4674 0.894705 13.42 0.743773 13.3311 0.616865C13.2422 0.489957 13.1162 0.393205 12.9701 0.339709C12.8239 0.286213 12.6647 0.278558 12.514 0.31778C12.3634 0.357003 12.2285 0.441208 12.1277 0.558994C12.2236 0.470247 12.3472 0.416673 12.478 0.407152C12.6088 0.39763 12.7389 0.432734 12.8469 0.506643C12.9548 0.580553 13.034 0.68883 13.0714 0.813528C13.1088 0.938225 13.1021 1.07185 13.0525 1.19227C13.0028 1.31268 12.9132 1.41264 12.7984 1.47559C12.6836 1.53853 12.5506 1.56068 12.4214 1.53835C12.2922 1.51603 12.1745 1.45058 12.0879 1.35285C12.0014 1.25512 11.9511 1.13098 11.9454 1.00101C11.9454 1.01788 11.9397 1.03396 11.9397 1.05083C11.9462 1.24745 12.0294 1.43387 12.1719 1.57069C12.3144 1.70751 12.505 1.78401 12.7033 1.78401C12.9016 1.78401 13.0922 1.70751 13.2347 1.57069C13.3772 1.43387 13.4604 1.24745 13.4669 1.05083V1.04923Z" fill="#7582BF"/>
<path d="M12.5158 1.54509C12.6102 1.54642 12.7035 1.5247 12.7875 1.48186C12.8715 1.43901 12.9435 1.37635 12.9973 1.29939C13.0511 1.22243 13.0851 1.13352 13.0961 1.0405C13.1071 0.947484 13.0949 0.8532 13.0606 0.765952C13.0263 0.678704 12.9708 0.601166 12.8992 0.540163C12.8275 0.47916 12.7419 0.436563 12.6497 0.41612C12.5576 0.395678 12.4618 0.398017 12.3708 0.422932C12.2797 0.447847 12.1963 0.494574 12.1277 0.559C12.1069 0.580128 12.0879 0.602981 12.071 0.627311C12.0099 0.705281 11.9705 0.79786 11.9568 0.895733C11.9568 0.895733 11.9568 0.895733 11.9568 0.899751C11.95 0.924307 11.9449 0.949273 11.9414 0.974491C11.9414 0.983332 11.9463 0.991368 11.9471 1.00021C11.9531 1.14613 12.0156 1.28415 12.1215 1.38561C12.2274 1.48707 12.3686 1.54418 12.5158 1.54509Z" fill="#9FAFDB"/>
</svg>
