<svg width="25" height="38" viewBox="0 0 25 38" fill="none" xmlns="http://www.w3.org/2000/svg">
<g clip-path="url(#clip0_9818_1725)">
<path d="M12.4997 37.1547C5.59636 37.1547 0 35.9484 0 34.4592C0 33.8684 0.8836 33.3222 2.37792 32.8809C2.44289 31.9888 3.2287 30.8387 4.19026 30.8387H5.14088C4.61291 30.6287 4.24361 30.1525 4.24361 29.5994C4.24361 28.8521 4.9152 28.2462 5.7434 28.2462H7.57352C6.36985 28.2462 5.39393 28.0595 5.39393 26.9732V26.685H6.03132C6.05594 18.7783 10.7906 16.2077 12.9162 15.4522C13.5262 15.2353 13.929 14.6287 13.929 13.9603V13.1444H13.9215C13.7239 13.4877 13.4404 13.7733 13.099 13.9728C12.7576 14.1724 12.3702 14.279 11.9751 14.2822C11.515 14.282 11.0666 14.1365 10.6935 13.8663C10.29 13.5774 9.79004 13.4718 9.32567 13.6282C8.15347 14.0214 7.12488 14.3899 6.7118 14.2822C5.69211 14.0166 3.99398 12.0725 4.07879 11.1002C4.16359 10.1278 3.90849 10.4826 6.45671 8.62495C9.00492 6.76733 11.0429 4.3827 11.0429 4.3827L10.5321 2.78998C13.5898 0.845215 18.4311 2.78998 18.4311 2.78998C18.5153 1.64055 19.8742 0.845215 19.8742 0.845215C20.5793 1.94661 20.5061 3.23808 20.2729 4.22624C20.2729 4.22624 24.3428 5.4141 24.3428 12.3923C24.3428 12.3923 24.2908 16.5289 23.2082 19.9099C22.5988 21.8128 22.7889 22.4579 23.0714 22.6582C23.4428 22.9211 23.691 23.3314 23.6801 23.7981C23.6507 25.0834 22.9886 26.8778 19.1479 25.5418C19.3525 25.9681 19.6327 26.3536 19.9747 26.6795H20.6935V26.9677C20.6935 28.054 19.7176 28.2407 18.5139 28.2407H20.3433C21.1722 28.2407 21.8431 28.8466 21.8431 29.5939C21.8431 30.1484 21.4745 30.6233 20.9465 30.8332H21.8971C22.9018 30.8332 23.7163 32.0877 23.7163 32.9942C23.7152 33.082 23.7074 33.1696 23.6931 33.2563C24.5274 33.6173 24.9993 34.0249 24.9993 34.4558C25 35.9484 19.4036 37.1547 12.4997 37.1547Z" fill="#BDCEEB"/>
<path d="M23.6938 33.2597C23.5611 34.1271 22.8088 35.1565 21.8978 35.1565H4.19026C3.18561 35.1565 2.37108 33.9014 2.37108 32.9955C2.37108 32.9564 2.37108 32.9166 2.37792 32.8768C0.8836 33.3222 0 33.8684 0 34.4593C0 35.9484 5.59636 37.1548 12.4997 37.1548C19.403 37.1548 25 35.9484 25 34.4593C25 34.0283 24.5281 33.6207 23.6938 33.2597Z" fill="#9DBDDF"/>
<path d="M19.1491 25.5444C22.9899 26.8805 23.6519 25.086 23.6813 23.8007C23.6923 23.3341 23.444 22.9238 23.0727 22.6609C22.7895 22.4605 22.5994 21.8155 23.2095 19.9126C24.2921 16.5316 24.344 12.395 24.344 12.395C24.344 5.41404 20.2742 4.22893 20.2742 4.22893C20.5074 3.24077 20.5805 1.94929 19.8754 0.8479C19.8754 0.8479 18.5165 1.64323 18.4317 2.79266C18.4317 2.79266 13.5904 0.8479 10.5327 2.79266L11.0422 4.38333C11.0422 4.38333 9.00415 6.77002 6.45593 8.62557C3.90772 10.4811 4.16281 10.1284 4.07801 11.1008C3.99321 12.0732 5.69133 14.0172 6.71103 14.2828C7.12137 14.3905 8.15269 14.022 9.3249 13.6288C9.79132 13.4724 10.2913 13.5781 10.6927 13.867C11.0658 14.1371 11.5142 14.2826 11.9743 14.2828C12.3694 14.2797 12.7568 14.173 13.0982 13.9735C13.4396 13.7739 13.7231 13.4883 13.9207 13.145H13.9282V13.9582C13.9282 14.6287 13.5254 15.2332 12.9154 15.4501C10.7898 16.2049 6.05517 18.7762 6.03055 26.6829H19.9753C19.6334 26.3568 19.3535 25.971 19.1491 25.5444ZM11.5052 2.58679C12.4072 2.32809 14.396 2.01105 17.5762 2.79266C17.5762 2.79266 13.4591 3.35125 13.7935 4.05875C13.7935 4.05875 12.5317 3.83504 11.4183 4.28177L11.1099 3.3286C11.086 3.25388 11.0773 3.17511 11.0843 3.09695C11.0914 3.01879 11.114 2.94286 11.1509 2.87365C11.1878 2.80445 11.2381 2.74339 11.299 2.69411C11.3599 2.64483 11.43 2.60834 11.5052 2.58679ZM11.2665 6.83041C11.2665 6.83041 10.1182 6.71169 9.43364 6.96765L9.5075 7.24214C9.88707 7.16254 10.5074 7.44801 10.6017 7.49124C10.7933 7.53646 10.9776 7.60878 11.1489 7.70603C11.1489 7.70603 9.19564 7.68888 6.21452 10.1991C6.21452 10.1991 6.64264 11.763 5.6674 11.8495C5.6674 11.8495 5.18867 10.5086 4.87954 11.6944C4.57042 12.8802 6.07842 13.7928 6.07842 13.7928C6.07842 13.7928 4.24351 12.8815 4.33994 11.1433C4.31327 11.2072 4.29891 11.2483 4.29891 11.2483C4.05886 10.7844 4.45347 10.2684 4.45347 10.2684C5.56686 9.46071 8.27511 7.32861 8.89062 6.84756C9.50613 6.36652 11.0791 4.64684 11.0791 4.64684C11.1962 4.61084 11.3168 4.58783 11.4388 4.57822V4.5741C11.4388 4.5741 12.9653 4.23099 13.9419 4.83487C13.9447 4.83624 13.6424 6.38299 11.2665 6.83041ZM17.5762 14.0721C15.3029 18.7275 16.0866 25.7098 16.0866 25.7098H6.75412C6.75412 19.8673 10.9471 17.1423 13.046 16.1452C13.3949 15.9769 13.6892 15.7129 13.895 15.3839C14.1007 15.0548 14.2094 14.674 14.2086 14.2856V12.8541C15.4431 11.787 14.329 9.22465 14.329 9.22465C14.329 9.22465 19.8501 9.41748 17.5762 14.0721ZM18.3141 23.4865C18.0973 22.7954 18.3038 21.985 18.5111 21.3104C19.0233 19.1523 20.8247 16.3614 21.7657 13.5959C22.0612 12.3936 22.1727 11.1619 22.0058 9.87038C21.9298 9.1978 21.7689 8.53763 21.5271 7.90572C21.1147 7.07514 20.5765 6.31376 19.9315 5.64873C19.6634 5.45041 19.2784 5.26376 19.0691 5.00779C19.2333 5.08808 19.3858 5.17592 19.5362 5.26444C19.3516 5.097 19.2353 5.00779 19.2353 5.00779C26.5955 7.82132 22.4873 18.0111 21.6502 20.137C21.0394 21.6851 21.6426 22.4736 22.0154 22.7872C22.1906 22.9333 22.3024 23.1419 22.3272 23.3691C22.4038 24.113 22.332 25.5403 20.4998 24.8788C20.1602 24.8029 19.8277 24.6978 19.5061 24.5645C19.0021 24.3538 18.4871 24.0396 18.3141 23.4865Z" fill="#2D2D7C"/>
<path d="M11.4416 4.57548V4.5796C12.7363 4.48628 11.5039 6.76591 10.9629 6.60671C10.3809 6.43515 9.4043 6.86473 9.4043 6.86473L9.43302 6.97109C10.1169 6.7117 11.2659 6.83385 11.2659 6.83385C13.6417 6.38643 13.944 4.83968 13.944 4.83968C12.9681 4.23443 11.4416 4.57548 11.4416 4.57548Z" fill="#7582BF"/>
<path d="M5.9266 10.1141C6.32052 10.9375 5.51626 10.836 5.51626 10.836C5.51626 10.836 5.9266 10.7673 5.31109 10.4407C4.81115 10.1758 4.45758 10.871 4.34131 11.1434C4.24488 12.8816 6.08184 13.7936 6.08184 13.7936C6.08184 13.7936 4.57726 12.8816 4.88296 11.6951C5.18867 10.5086 5.67082 11.8502 5.67082 11.8502C6.64743 11.7637 6.21794 10.1998 6.21794 10.1998C9.19906 7.68962 11.1523 7.70746 11.1523 7.70746C10.981 7.61021 10.7968 7.53789 10.6052 7.49268L10.6243 7.5016C8.75384 7.43297 5.9266 10.1141 5.9266 10.1141Z" fill="#7582BF"/>
<path d="M2.37109 32.9975C2.37109 33.9034 3.18562 35.1585 4.19027 35.1585H21.8978C22.8088 35.1585 23.5611 34.1291 23.6938 33.2597C23.7081 33.173 23.7158 33.0854 23.717 32.9975C23.717 32.091 22.9025 30.8366 21.8978 30.8366H20.9472C21.4745 30.6273 21.8438 30.1511 21.8438 29.598C21.8438 28.8507 21.1729 28.2448 20.344 28.2448H18.5146C19.7182 28.2448 20.6942 28.0581 20.6942 26.9718V26.6836H5.39394V26.9718C5.39394 28.0581 6.36986 28.2448 7.57353 28.2448H5.74478C4.91657 28.2448 4.24498 28.8507 4.24498 29.598C4.24498 30.1525 4.61429 30.6273 5.14226 30.8373H4.19027C3.22871 30.8373 2.4429 31.9861 2.37793 32.8795C2.37451 32.9193 2.37109 32.9591 2.37109 32.9982V32.9975ZM6.86432 27.844C6.35071 27.844 5.93422 27.3918 5.93285 26.8346H17.5763C17.5763 27.3918 17.1591 27.844 16.6455 27.844H6.86432ZM4.67037 29.375C4.67048 29.1714 4.73203 28.9726 4.8469 28.8048C4.96177 28.637 5.12459 28.508 5.31392 28.4348C5.42193 28.3884 5.53838 28.3651 5.65587 28.3662H16.2584C16.3907 28.3662 16.5217 28.3924 16.6439 28.4432C16.7661 28.494 16.8772 28.5684 16.9707 28.6623C17.0643 28.7561 17.1385 28.8676 17.1891 28.9902C17.2397 29.1128 17.2658 29.2443 17.2658 29.377C17.2658 29.5098 17.2397 29.6412 17.1891 29.7638C17.1385 29.8865 17.0643 29.9979 16.9707 30.0918C16.8772 30.1856 16.7661 30.2601 16.6439 30.3109C16.5217 30.3617 16.3907 30.3878 16.2584 30.3878H5.67639C5.54404 30.3877 5.41302 30.3613 5.29082 30.3103C5.16863 30.2593 5.05764 30.1846 4.96422 30.0906C4.87079 29.9965 4.79675 29.8849 4.74633 29.7621C4.69591 29.6393 4.6701 29.5078 4.67037 29.375ZM3.19998 32.5165C3.20016 32.0931 3.36791 31.6871 3.66634 31.3878C3.96478 31.0885 4.36946 30.9203 4.79142 30.9203H18.055C18.2667 30.9159 18.4772 30.954 18.6741 31.0322C18.871 31.1105 19.0503 31.2274 19.2016 31.3761C19.3529 31.5247 19.4731 31.7022 19.5551 31.8981C19.6372 32.094 19.6794 32.3044 19.6794 32.5168C19.6794 32.7293 19.6372 32.9397 19.5551 33.1356C19.4731 33.3315 19.3529 33.5089 19.2016 33.6576C19.0503 33.8063 18.871 33.9232 18.6741 34.0015C18.4772 34.0797 18.2667 34.1178 18.055 34.1133H4.79142C4.36934 34.1133 3.96456 33.9451 3.6661 33.6456C3.36765 33.3462 3.19998 32.94 3.19998 32.5165Z" fill="#2D2D7C"/>
<path d="M4.79142 34.1134H18.055C18.2667 34.1178 18.4772 34.0798 18.6741 34.0015C18.871 33.9233 19.0503 33.8064 19.2016 33.6577C19.3529 33.509 19.4731 33.3315 19.5551 33.1356C19.6372 32.9397 19.6794 32.7294 19.6794 32.5169C19.6794 32.3044 19.6372 32.0941 19.5551 31.8982C19.4731 31.7023 19.3529 31.5248 19.2016 31.3761C19.0503 31.2274 18.871 31.1105 18.6741 31.0323C18.4772 30.954 18.2667 30.916 18.055 30.9204H4.79142C4.5797 30.916 4.36923 30.954 4.17235 31.0323C3.97546 31.1105 3.79612 31.2274 3.64484 31.3761C3.49355 31.5248 3.37336 31.7023 3.29131 31.8982C3.20926 32.0941 3.16699 32.3044 3.16699 32.5169C3.16699 32.7294 3.20926 32.9397 3.29131 33.1356C3.37336 33.3315 3.49355 33.509 3.64484 33.6577C3.79612 33.8064 3.97546 33.9233 4.17235 34.0015C4.36923 34.0798 4.5797 34.1178 4.79142 34.1134ZM3.5816 32.286C3.58201 32.0684 3.64101 31.8549 3.75236 31.6681C3.86372 31.4814 4.02329 31.3283 4.21421 31.2251C4.35402 31.1252 4.52133 31.0715 4.69294 31.0714H14.8762C15.0376 31.0675 15.198 31.0961 15.3482 31.1554C15.4984 31.2147 15.6353 31.3035 15.7507 31.4166C15.8662 31.5298 15.9579 31.6649 16.0206 31.8142C16.0832 31.9634 16.1155 32.1237 16.1155 32.2856C16.1155 32.4476 16.0832 32.6079 16.0206 32.7571C15.9579 32.9063 15.8662 33.0415 15.7507 33.1546C15.6353 33.2678 15.4984 33.3566 15.3482 33.4159C15.198 33.4752 15.0376 33.5038 14.8762 33.4999H4.79142C4.47061 33.4997 4.16299 33.3718 3.93615 33.1442C3.7093 32.9165 3.58178 32.6079 3.5816 32.286Z" fill="#505CA6"/>
<path d="M4.79151 33.4999H14.8763C15.0377 33.5038 15.1981 33.4752 15.3483 33.4159C15.4985 33.3566 15.6353 33.2678 15.7508 33.1547C15.8663 33.0415 15.958 32.9064 16.0207 32.7571C16.0833 32.6079 16.1156 32.4476 16.1156 32.2857C16.1156 32.1237 16.0833 31.9634 16.0207 31.8142C15.958 31.665 15.8663 31.5298 15.7508 31.4167C15.6353 31.3035 15.4985 31.2147 15.3483 31.1554C15.1981 31.0961 15.0377 31.0675 14.8763 31.0714H11.6545C11.7662 31.0682 11.8774 31.0875 11.9815 31.1282C12.0857 31.1689 12.1806 31.2301 12.2608 31.3082C12.3409 31.3864 12.4047 31.4799 12.4482 31.5832C12.4917 31.6865 12.5141 31.7975 12.5141 31.9096C12.5141 32.0218 12.4917 32.1328 12.4482 32.236C12.4047 32.3393 12.3409 32.4328 12.2608 32.511C12.1806 32.5891 12.0857 32.6504 11.9815 32.6911C11.8774 32.7317 11.7662 32.751 11.6545 32.7478H4.69371C4.5161 32.7483 4.34299 32.6918 4.19962 32.5866C4.05625 32.4813 3.95011 32.333 3.89668 32.163C3.84324 31.993 3.8453 31.8104 3.90256 31.6417C3.95982 31.473 4.06927 31.327 4.21498 31.2251C3.97882 31.3535 3.79212 31.5573 3.68444 31.8042C3.57677 32.051 3.55428 32.3269 3.62055 32.5881C3.68682 32.8493 3.83805 33.0808 4.05028 33.246C4.26251 33.4111 4.52361 33.5005 4.79219 33.4999H4.79151Z" fill="#7582BF"/>
<path d="M3.85791 31.9093C3.85791 32.1317 3.94596 32.345 4.10269 32.5022C4.25942 32.6595 4.47199 32.7478 4.69364 32.7478H11.6544C11.7661 32.751 11.8773 32.7317 11.9815 32.6911C12.0856 32.6504 12.1806 32.5891 12.2607 32.511C12.3409 32.4328 12.4046 32.3393 12.4481 32.236C12.4916 32.1328 12.514 32.0218 12.514 31.9096C12.514 31.7975 12.4916 31.6865 12.4481 31.5832C12.4046 31.4799 12.3409 31.3864 12.2607 31.3082C12.1806 31.2301 12.0856 31.1689 11.9815 31.1282C11.8773 31.0875 11.7661 31.0682 11.6544 31.0714H4.69364C4.47244 31.0725 4.2606 31.1611 4.10412 31.3179C3.94764 31.4748 3.85917 31.6873 3.85791 31.9093Z" fill="#9FAFDB"/>
<path d="M16.2585 30.3859C16.3908 30.3859 16.5217 30.3597 16.644 30.3089C16.7662 30.2581 16.8772 30.1837 16.9708 30.0898C17.0643 29.996 17.1385 29.8845 17.1892 29.7619C17.2398 29.6393 17.2658 29.5078 17.2658 29.3751C17.2658 29.2423 17.2398 29.1109 17.1892 28.9882C17.1385 28.8656 17.0643 28.7542 16.9708 28.6603C16.8772 28.5665 16.7662 28.492 16.644 28.4412C16.5217 28.3904 16.3908 28.3643 16.2585 28.3643H14.6253C14.852 28.3643 15.0695 28.4546 15.2298 28.6155C15.3901 28.7764 15.4802 28.9945 15.4802 29.222C15.4802 29.4495 15.3901 29.6677 15.2298 29.8286C15.0695 29.9894 14.852 30.0798 14.6253 30.0798H5.65253C5.4559 30.0803 5.26511 30.0128 5.11237 29.8886C4.95962 29.7643 4.85426 29.591 4.81408 29.3979C4.7739 29.2048 4.80135 29.0036 4.8918 28.8285C4.98225 28.6533 5.13016 28.5148 5.31057 28.4363C5.09224 28.522 4.91057 28.6815 4.79695 28.8872C4.68333 29.093 4.64489 29.3321 4.68828 29.5632C4.73166 29.7944 4.85414 30.0031 5.03457 30.1533C5.21499 30.3035 5.44203 30.3858 5.67646 30.3859H16.2585Z" fill="#505CA6"/>
<path d="M4.79834 29.2213C4.79834 29.3338 4.82043 29.4453 4.86336 29.5493C4.90629 29.6532 4.96921 29.7477 5.04853 29.8273C5.12785 29.9069 5.22201 29.97 5.32565 30.0131C5.42928 30.0562 5.54036 30.0784 5.65253 30.0784H14.6253C14.852 30.0784 15.0695 29.988 15.2298 29.8271C15.3901 29.6663 15.4802 29.4481 15.4802 29.2206C15.4802 28.9931 15.3901 28.7749 15.2298 28.614C15.0695 28.4532 14.852 28.3628 14.6253 28.3628H5.65253C5.4261 28.3632 5.20904 28.4536 5.04893 28.6142C4.88881 28.7749 4.7987 28.9927 4.79834 29.2199V29.2213ZM5.22304 29.1348C5.22304 28.9775 5.28516 28.8267 5.39578 28.7153C5.50641 28.6039 5.65653 28.5411 5.81325 28.5405H11.1032C11.2604 28.5405 11.4111 28.6031 11.5223 28.7145C11.6334 28.826 11.696 28.9771 11.6962 29.1348V29.307C11.6962 29.4648 11.6337 29.6162 11.5225 29.7277C11.4113 29.8393 11.2605 29.902 11.1032 29.902H5.81325C5.65611 29.9018 5.50547 29.8391 5.39442 29.7275C5.28337 29.6159 5.22099 29.4647 5.22099 29.307L5.22304 29.1348Z" fill="#7582BF"/>
<path d="M5.81316 28.5405H11.1031C11.181 28.5405 11.2581 28.5559 11.33 28.5858C11.402 28.6157 11.4673 28.6595 11.5224 28.7148C11.5775 28.77 11.6211 28.8356 11.6509 28.9078C11.6807 28.98 11.6961 29.0574 11.6961 29.1355V29.3077C11.6961 29.4653 11.6337 29.6165 11.5226 29.7279C11.4115 29.8394 11.2609 29.902 11.1038 29.902H5.81316C5.6559 29.902 5.50508 29.8393 5.39388 29.7277C5.28269 29.6162 5.22021 29.4648 5.22021 29.307V29.1348C5.2204 28.9771 5.28295 28.826 5.39413 28.7145C5.5053 28.6031 5.65602 28.5405 5.81316 28.5405Z" fill="#9FAFDB"/>
<path d="M17.5763 26.8346H5.93286C5.93286 27.3918 6.35073 27.844 6.86433 27.844H16.6441C17.1591 27.844 17.5763 27.3918 17.5763 26.8346Z" fill="#505CA6"/>
<path d="M20.8589 20.067C20.2488 21.6364 20.8514 22.4359 21.2234 22.7543C21.3994 22.9029 21.5112 23.1142 21.5353 23.3437C21.5879 23.8605 21.5708 24.7031 20.9663 24.9673C20.8096 24.9447 20.6551 24.9138 20.5026 24.8788C22.3347 25.5376 22.4066 24.1103 22.33 23.3691C22.3051 23.1419 22.1933 22.9333 22.0181 22.7872C21.6454 22.4736 21.0422 21.6851 21.6529 20.137C22.49 18.0097 26.5982 7.81928 19.238 5.00781C19.238 5.00781 19.3543 5.09702 19.539 5.26446C25.3548 8.68392 21.6481 18.0282 20.8589 20.067Z" fill="#7582BF"/>
<path d="M19.9973 5.69335C19.9782 5.67688 19.9529 5.66178 19.929 5.646C20.5749 6.31172 21.1138 7.07405 21.5265 7.90573C21.3749 7.52261 21.1825 7.15703 20.9528 6.81532C20.6689 6.39604 20.3913 6.01381 19.9973 5.69335Z" fill="#7582BF"/>
<path d="M20.937 16.0108C21.2814 15.2303 21.5587 14.4217 21.7659 13.5939C20.8249 16.3594 19.0235 19.1523 18.5112 21.3084C18.5174 21.2871 18.5235 21.2652 18.5304 21.2446C19.1001 19.411 20.1752 17.7682 20.937 16.0108Z" fill="#7582BF"/>
<path d="M20.5 24.8789C20.6525 24.9139 20.8071 24.9475 20.9637 24.9674C21.5683 24.7032 21.5854 23.8605 21.5327 23.3438C21.5087 23.1142 21.3969 22.9029 21.2208 22.7543C20.8488 22.4359 20.2435 21.6378 20.859 20.0671C21.651 18.0283 25.3577 8.68398 19.5391 5.26178C19.3887 5.17325 19.2361 5.08542 19.072 5.00513C19.2813 5.26109 19.6663 5.44774 19.9344 5.64606C19.9556 5.66184 19.9809 5.67694 20.0028 5.69341C20.3967 6.01388 20.6744 6.3961 20.9603 6.81676C21.1909 7.15791 21.3842 7.52304 21.5368 7.9058C21.7786 8.5377 21.9395 9.19787 22.0155 9.87046C22.1824 11.1619 22.0709 12.3937 21.7755 13.596C21.5651 14.4234 21.2845 15.2313 20.937 16.0108C20.1751 17.7682 19.1001 19.411 18.5338 21.2467C18.5269 21.2673 18.5208 21.2892 18.5146 21.3105C18.3095 21.9851 18.1009 22.7955 18.3177 23.4865C18.4907 24.0355 19.0057 24.3539 19.5097 24.5646C19.8302 24.6977 20.1615 24.8028 20.5 24.8789Z" fill="#9FAFDB"/>
<path d="M11.4212 4.28462C12.5346 3.83789 13.7964 4.0616 13.7964 4.0616C13.4592 3.3541 17.5763 2.79551 17.5763 2.79551C14.3962 2.01116 12.4074 2.3282 11.5053 2.58965C11.4298 2.61116 11.3594 2.64775 11.2983 2.69721C11.2372 2.74668 11.1867 2.80801 11.1498 2.87753C11.1129 2.94705 11.0903 3.02333 11.0835 3.1018C11.0767 3.18027 11.0857 3.25931 11.11 3.3342L11.4212 4.28462ZM11.6407 2.71454C12.2686 2.52377 13.4996 2.30281 15.3789 2.5821C14.8542 2.7052 14.357 2.92535 13.9127 3.23127C13.6119 3.43494 13.3509 3.69217 13.1426 3.99023C12.9374 3.99572 12.7487 3.96827 12.5455 4.00945C12.2044 4.03659 11.8691 4.11309 11.5498 4.23659L11.2947 3.40282C11.2505 3.26584 11.2618 3.11694 11.326 2.9882C11.3902 2.85946 11.5023 2.76118 11.638 2.71454H11.6407Z" fill="#7582BF"/>
<path d="M11.5469 4.23649C11.8662 4.113 12.2015 4.03649 12.5426 4.00935C12.7478 3.96818 12.9325 3.99563 13.1397 3.99014C13.348 3.69208 13.609 3.43484 13.9098 3.23117C14.3541 2.92526 14.8513 2.70511 15.3761 2.58201C13.4967 2.29928 12.2657 2.52368 11.6378 2.71445C11.5021 2.76055 11.3898 2.85827 11.3251 2.9866C11.2603 3.11492 11.2484 3.2636 11.2918 3.40067L11.5469 4.23649Z" fill="#9FAFDB"/>
<path d="M14.3283 9.22339C14.3283 9.22339 15.4424 11.7858 14.2079 12.8528V14.2857C14.2088 14.6741 14.1 15.0549 13.8943 15.384C13.6885 15.7131 13.3942 15.977 13.0453 16.1453C10.9492 17.1424 6.75342 19.8674 6.75342 25.7099H7.07827C7.07827 17.9213 14.3488 16.1522 14.3488 16.1522V13.0642C15.9717 12.7568 16.1194 14.0935 16.1064 14.7015C16.1036 14.8527 16.0773 15.0025 16.0285 15.1455C14.8549 18.5595 15.4814 25.7093 15.4814 25.7093H16.0887C16.0887 25.7093 15.3029 18.7276 17.5762 14.0723C19.8494 9.4169 14.3283 9.22339 14.3283 9.22339Z" fill="#505CA6"/>
<path d="M16.0293 15.1462C16.0781 15.0032 16.1044 14.8534 16.1073 14.7022C16.1203 14.0963 15.9705 12.7574 14.3497 13.0649V16.1529C14.3497 16.1529 7.0791 17.9213 7.0791 25.7099H15.4795C15.4795 25.7099 14.8557 18.5602 16.0293 15.1462ZM9.73742 25.5665H7.53526C7.53526 18.998 14.3531 16.3944 14.3531 16.3944C10.3673 19.0302 9.734 25.5665 9.734 25.5665H9.73742Z" fill="#7582BF"/>
<path d="M7.53174 25.5665H9.7339C9.7339 25.5665 10.3672 19.0281 14.3495 16.3944C14.3495 16.3944 7.53174 18.9979 7.53174 25.5665Z" fill="#9FAFDB"/>
<path d="M10.9635 6.60949C11.5031 6.76869 12.7355 4.48905 11.4422 4.58238C11.3202 4.59199 11.1995 4.615 11.0825 4.651C11.0825 4.651 9.50952 6.37 8.89401 6.85173C8.2785 7.33346 5.57025 9.46487 4.45686 10.2726C4.45686 10.2726 4.06225 10.7886 4.3023 11.2525C4.3023 11.2525 4.31666 11.2113 4.34334 11.1475C4.4596 10.873 4.81318 10.1799 5.31311 10.4448C5.92862 10.7708 5.51828 10.8401 5.51828 10.8401C5.51828 10.8401 6.32323 10.943 5.92862 10.1182C5.92862 10.1182 8.75587 7.43639 10.6229 7.50501L10.6038 7.49609C10.5094 7.4508 9.88909 7.16739 9.50952 7.24699L9.43566 6.9725L9.40694 6.86614C9.40694 6.86614 10.3815 6.43519 10.9635 6.60949Z" fill="#9FAFDB"/>
</g>
<defs>
<clipPath id="clip0_9818_1725">
<rect width="25" height="36.3095" fill="white" transform="translate(0 0.845215)"/>
</clipPath>
</defs>
</svg>
