<svg width="20" height="16" viewBox="0 0 20 16" fill="none" xmlns="http://www.w3.org/2000/svg">
<path d="M16 4.5C16 5.88071 14.8807 7 13.5 7C12.1193 7 11 5.88071 11 4.5C11 3.11929 12.1193 2 13.5 2C14.8807 2 16 3.11929 16 4.5Z" fill="white"/>
<path d="M7 9H2C0.895431 9 0 9.89543 0 11V16H13V15C13 11.6863 10.3137 9 7 9Z" fill="white"/>
<path d="M20 14C20 11.2386 17.7614 9 15 9H10C13 9 16 11.4558 16 15.2792V16H20V14Z" fill="white"/>
<path d="M9 3.5C9 5.433 7.433 7 5.5 7C3.567 7 2 5.433 2 3.5C2 1.567 3.567 0 5.5 0C7.433 0 9 1.567 9 3.5Z" fill="white"/>
</svg>
